<svg version="1.2" baseProfile="tiny-ps" xmlns="http://www.w3.org/2000/svg" viewBox="0 0 685 169" width="685" height="169">
	<title>New Project</title>
	<style>
		tspan { white-space:pre }
		.shp0 { fill: #102694 } 
		.shp1 { fill: #2c2e35 } 
		.shp2 { fill: #a9e8fb } 
		.shp3 { fill: #ffd939 } 
		.shp4 { fill: #ffffff;stroke: #ffffff;stroke-width: 0.4 } 
		.shp5 { fill: #ffffff } 
		.shp6 { fill: #ff2e17 } 
		.shp7 { fill: none;stroke: #2c2e35;stroke-width: 1.359 } 
	</style>
	<g id="Folder 1">
		<g id="&lt;Group&gt;">
			<path id="&lt;Path&gt;" class="shp0" d="M671.45 85.54C672.71 83.38 673.63 81.9 674.21 81.1C675.68 79.1 676.94 78.22 677.99 78.43C679.36 78.48 680.06 79.86 680.12 82.55C680.12 82.98 679.93 83.41 679.57 83.84L678.85 84.97C678.44 85.72 677.99 85.75 677.52 85.05C676.52 83.06 675.66 82.47 674.92 83.28L672.64 86.42C672.11 87.39 671.64 87.61 671.22 87.07C671.17 86.64 671.25 86.13 671.45 85.54Z" />
			<path id="&lt;Path&gt;" class="shp0" d="M683.26 95.23C683.53 94.42 683.79 94.39 684.05 95.15C684.68 98.22 684.39 100.85 683.19 103.06C680.25 106.93 677.49 108.31 674.92 107.18C674.6 106.91 674.21 106.99 673.73 107.42C669.48 110.44 666.44 109.25 664.61 103.86C664.35 102.25 664.27 101.09 664.37 100.39C664.47 99.32 664.24 98.99 663.67 99.43C662.14 100.5 661.04 101.55 660.36 102.58C659.42 103.65 658.73 105.32 658.31 107.58C657.26 117.11 649.81 121.26 635.95 120.02C634.75 120.02 634.54 119.78 635.32 119.3C642.83 117.68 648.1 115.74 651.15 113.48C655.34 110.94 657.5 107.9 657.61 104.35C658.23 101.71 659.59 99.35 661.69 97.25C662.59 96.44 663.46 95.82 664.29 95.38C665.34 94.63 665.89 94.07 665.94 93.69C666.57 93.21 666.99 93.61 667.21 94.9C667.15 95.71 667.1 96.33 667.05 96.76C666.68 101.18 667.73 103.54 670.19 103.86C672.93 104.41 674.48 103.63 674.84 101.52C675.21 100.02 675.76 99.34 676.5 99.51C677.07 99.45 677.18 100.23 676.81 101.85C676.13 102.76 676.18 103.14 676.96 102.98C680.27 103.73 682.37 101.15 683.26 95.23Z" />
			<path id="&lt;Path&gt;" class="shp0" d="M629.5 71.16C628.51 71.65 628.03 72.21 628.08 72.86C628.08 73.4 628.5 73.48 629.34 73.1C630.97 72.4 631.71 72.51 631.55 73.42C630.65 74.82 629.42 75.82 627.85 76.41C627.22 76.73 627.09 77.08 627.45 77.46C628.03 77.79 628.66 77.68 629.34 77.14C632.91 74.93 634.22 72.8 633.28 70.76C633.01 70.11 631.75 70.25 629.5 71.16Z" />
			<path id="&lt;Path&gt;" class="shp0" d="M630.6 82.3C628.55 82.63 626.95 83.63 625.8 85.3C625.33 86.58 625.62 86.88 626.66 86.18C628.4 85.16 630.05 84.43 631.63 84C635.93 82.17 638.4 80.8 639.02 79.88C639.34 79.07 639.16 78.7 638.48 78.75C637.9 78.86 637.37 79.15 636.9 79.64C635.37 80.5 634.14 81.01 633.2 81.17C632.15 81.61 631.29 81.98 630.6 82.3Z" />
			<path id="&lt;Path&gt;" class="shp0" d="M657.28 65.99C657.34 65.19 657.1 64.95 656.57 65.27C656.21 65.37 655.87 65.94 655.55 66.96C654.82 70.84 651.67 75.06 646.11 79.64C644.22 81.69 640.57 83.76 635.16 85.86C634.69 86.02 634.46 86.29 634.46 86.67C634.77 87.1 635.12 87.23 635.48 87.07C640.15 86.96 643.99 85.54 646.97 82.79C647.65 82.04 648.05 82.12 648.16 83.03C649.05 86.37 649.68 88.58 650.04 89.66C650.99 91.97 651.04 93.85 650.2 95.31C648.16 101.77 641.57 105.94 630.44 107.82C618.58 110.84 610.14 105.86 605.1 92.89C604.94 92.08 604.52 91.92 603.84 92.4C602.68 92.88 601.16 94.8 599.27 98.13L596.12 103.38C595.39 105.27 593.97 105.81 591.88 105C589.56 103.7 588.93 100.96 589.98 96.76C590.67 94.44 591.82 92.96 593.44 92.32C594.92 90.87 595.89 90.06 596.36 89.9C598.98 88.39 600.82 86.18 601.87 83.28C602.61 81.12 603.03 79.8 603.13 79.32C603.39 78.03 602.84 77.41 601.48 77.46C600.53 77.79 599.64 78 598.8 78.11C595.7 78.21 594.23 78.97 594.39 80.37L593.92 81.66C593.6 82.84 594.08 83.33 595.34 83.11L598.96 82.3C600.16 82.09 600.35 82.44 599.51 83.36C598.51 84.92 596.36 86.67 593.05 88.6C589.06 91.08 587.31 95.6 587.78 102.17C588.31 107.61 590.17 110.14 593.37 109.76C594.79 110.25 596.44 108.44 598.33 104.35C600.2 100.85 601.5 98.81 602.23 98.21C603.04 97.19 603.66 97.24 604.07 98.37C609.69 110.06 618.66 114.69 630.99 112.27C644.01 109.47 651.04 103.49 652.09 94.34C653.09 91.05 652.35 86.93 649.89 81.98C649.21 80.96 649.31 80.13 650.2 79.48C652.62 76.52 654.11 74.39 654.69 73.1C655.11 72.18 655.35 72.32 655.4 73.5L655.55 78.67C655.71 79.91 656 80.02 656.42 79C657.1 77.65 657.39 76.33 657.28 75.04L657.28 65.99Z" />
			<path id="&lt;Path&gt;" class="shp0" d="M568.65 70.92C568.7 69.9 569.05 69.38 569.68 69.38C570.15 69.76 570.38 70.33 570.38 71.08C570.8 72.91 571.25 74.26 571.72 75.12C573.51 79.64 574.14 84.54 573.61 89.81C573.35 98.75 570.28 105.05 564.4 108.71C559.78 114.15 552.78 116.68 543.38 116.3C541.07 115.93 540.76 115.36 542.44 114.61C551.73 113.64 559.54 109.81 565.89 103.14C570.83 99.27 572.88 93.91 572.03 87.07C571.56 82.71 570.75 79.64 569.6 77.87C569.12 78.67 568.94 81.31 569.05 85.78L568.96 90.14C569.23 91.75 569.07 92.51 568.49 92.4C567.76 92.88 567.44 90.27 567.55 84.57C567.44 82.58 567.81 78.03 568.65 70.92Z" />
			<path id="&lt;Path&gt;" class="shp0" d="M558.5 67.61C558.55 66.64 558.2 66.37 557.48 66.8C556.89 67.61 556.55 68.47 556.45 69.38C556.4 70.3 556.42 70.89 556.53 71.16C556.9 72.45 556.82 73.88 556.29 75.44L553.69 85.54C553.22 86.61 553.33 87.23 554.01 87.39C554.32 87.61 554.69 87.1 555.11 85.86L557.55 77.54C557.61 76.63 557.87 76.57 558.34 77.38C559.28 79.86 559.86 82.12 560.07 84.16C561.17 88.04 559.96 90.41 556.45 91.27C553.14 92.94 550.49 91.97 548.5 88.37C547.56 84.6 545.77 82.9 543.15 83.28C539.95 83.17 536.17 85.05 531.81 88.93C531.13 89.41 530.66 90.17 530.39 91.19C529.87 92.16 530.05 92.7 530.94 92.81L537.56 94.74C538.71 94.96 538.69 95.49 537.48 96.35C528.45 102.98 515.04 106.34 497.25 106.45C483.19 106.45 473.72 102.6 468.84 94.9C468.31 93.72 468.02 92.64 467.97 91.68C467.6 91.3 467.68 90.89 468.21 90.46C468.78 89.44 469.1 88.71 469.15 88.28C469.89 86.4 469.65 85.73 468.45 86.26L467.34 87.63C466.76 88.55 465.95 89.14 464.9 89.41C464.27 89.84 463.59 90.14 462.85 90.3C459.5 90.89 457.05 93.88 455.53 99.26C455.06 102.98 454.09 105.11 452.62 105.64C448.79 109.09 443.52 111.03 436.8 111.46C435.17 111.51 435.15 112 436.72 112.91C441.29 114.2 445.12 114.07 448.21 112.51C452.46 110.68 454.93 108.23 455.61 105.16C456.24 102.95 456.64 101.53 456.8 100.88C457.37 97.97 458.99 95.98 461.67 94.9L464.74 93.61C465.48 93.18 465.84 93.37 465.84 94.18C465.53 98.75 468.18 102.36 473.8 105C482.93 110.97 495.65 112.4 511.98 109.28C529.24 105.78 539.18 100.88 541.81 94.58C542.7 93.18 542.62 92.21 541.57 91.68C540.68 90.92 539.24 90.3 537.24 89.81C536.35 89.49 536.43 89.14 537.48 88.77L541.42 87.63C543.67 86.99 545.19 87.93 545.98 90.46C547.92 94.77 550.41 96.71 553.46 96.27C558.92 96.17 561.83 92.1 562.2 84.08C562.2 80.64 561.41 76.89 559.84 72.86C559.21 70.27 558.76 68.52 558.5 67.61Z" />
			<path id="&lt;Path&gt;" class="shp0" d="M540.79 105.16C540.47 105.91 540.65 106.48 541.34 106.85C542.59 107.88 543.49 108.42 544.01 108.47C544.85 108.74 545.45 108.58 545.82 107.99L547 106.45C547.32 105.86 547.29 105.45 546.92 105.24C545.03 104.27 543.93 103.54 543.62 103.06C542.88 102.68 542.43 102.76 542.28 103.3C541.49 104 540.99 104.62 540.79 105.16Z" />
			<path id="&lt;Path&gt;" class="shp0" d="M539.05 68.33C538.16 68.01 537.37 68.93 536.69 71.08C536.11 72.42 536.45 73.26 537.71 73.58C538.24 73.74 538.27 74.15 537.8 74.79C536.48 76.03 535.56 76.87 535.04 77.3C532.05 79.35 529.72 80.74 528.03 81.5C527.51 81.61 527.35 81.93 527.56 82.47C527.45 83.11 527.93 83.17 528.98 82.63C535.54 79.67 539.19 76.65 539.92 73.58C540.65 72.78 540.89 71.75 540.63 70.51C540.52 68.95 540 68.23 539.05 68.33Z" />
			<path id="&lt;Path&gt;" class="shp0" d="M495.46 93.73C494.64 93.73 494.08 94.22 493.8 95.19C493.38 96.07 493.87 96.46 495.28 96.34C495.64 96.5 495.58 96.68 495.1 96.88C493.1 98.34 491.05 99.3 488.97 99.79C488.6 99.97 488.48 100.23 488.61 100.58C488.85 101.26 489.11 101.48 489.38 101.25C493.01 100.52 495.44 99.26 496.7 97.49C498.16 94.9 497.75 93.65 495.46 93.73Z" />
			<path id="&lt;Path&gt;" class="shp0" d="M509.22 76.49C507.54 78.91 503.5 81.77 497.1 85.05C493.11 86.67 490.83 88.49 490.25 90.54C489.46 91.51 489.25 92.26 489.62 92.81C489.93 92.91 490.33 92.64 490.8 91.99C491.8 90.27 493.19 89.12 494.97 88.52C503.78 84.32 508.98 80.45 510.56 76.89C510.98 76.09 511 75.6 510.63 75.44C510.32 75.17 509.85 75.52 509.22 76.49Z" />
			<path id="&lt;Path&gt;" class="shp0" d="M446.16 74.71L439.39 75.52C438.66 75.79 438.22 76.14 438.06 76.57L437.27 78.35C436.85 79.59 437.4 80.1 438.93 79.88L445.22 78.51C446.11 78.19 446.67 77.68 446.88 76.98L447.18 76.01C447.92 74.88 447.58 74.44 446.16 74.71Z" />
			<path id="&lt;Path&gt;" class="shp0" d="M460.33 109.28C459.6 109.17 459.13 109.74 458.91 110.98C458.86 111.62 458.81 112.02 458.76 112.18C458.69 112.42 457.98 113.4 459.55 113.15L464.82 111.46C465.4 111.03 465.84 110.62 466.16 110.25L467.26 108.63C467.63 107.61 467.34 107.28 466.4 107.66C465.61 107.61 464.93 107.72 464.35 107.99L462.3 108.55L460.33 109.28Z" />
			<path id="&lt;Path&gt;" class="shp0" d="M469.55 74.55C468.87 72.08 467.71 70.81 466.08 70.76C464.71 70.87 464.01 71.7 463.96 73.26C464.01 74.5 464.37 74.63 465.05 73.67C465.53 72.7 466.37 73.13 467.58 74.96C468 75.92 468.31 77 468.52 78.19C468.78 79.26 469.25 79.34 469.94 78.43C472.04 75.09 474.53 73.77 477.41 74.47C478.26 74.8 478.7 74.45 478.76 73.42C478.28 70.68 475.84 71 471.44 74.39L470.02 75.68L469.55 74.55Z" />
			<g id="&lt;Group&gt;">
				<path id="&lt;Compound Path&gt;" fill-rule="evenodd" class="shp0" d="M442.78 94.98C442.42 96.17 441.71 97.65 440.66 99.43C438.51 102.6 436.35 103.14 434.2 101.04C433 100.13 432.94 98.4 434.04 95.87L436.8 89.09C437.95 86.83 439.42 86.37 441.21 87.71C443.31 89.06 443.83 91.49 442.78 94.98ZM439.24 91.59C438.24 91.16 437.48 91.65 436.96 93.05L435.93 95.15C435.3 96.44 435.49 97.22 436.49 97.49C438.01 98.03 439.29 97.51 440.34 95.95C441.33 94.39 440.97 92.94 439.24 91.59Z" />
			</g>
		</g>
		<g id="&lt;Group&gt;">
			<path id="&lt;Path&gt;" class="shp0" d="M244.1 77.59C244.15 76.58 244.49 76.08 245.12 76.08C245.6 76.45 245.84 77.01 245.84 77.75C246.16 80 246.55 81.55 247.02 82.4C250.23 86.98 251.57 91.86 251.04 97.05C251.36 112.62 242.84 119.61 225.48 118.03C223.64 117.81 223.57 117.34 225.25 116.6C232.11 115.72 237.79 113.58 242.29 110.16C249.86 105.95 251.75 99.87 247.97 91.93C247.31 89.31 246.4 87.13 245.25 85.38C244.77 84.63 244.57 85.84 244.65 88.99L244.57 93.28C244.83 94.87 244.67 95.61 244.09 95.5C243.36 95.98 243.04 93.41 243.15 87.8C242.94 87.99 243.26 84.58 244.1 77.59Z" />
			<path id="&lt;Path&gt;" class="shp0" d="M230.69 73.82C230.8 72.76 231.22 72.31 231.95 72.47C232.48 72.57 232.8 73.39 232.9 74.93C235.79 80.54 236.98 86 236.45 91.29C236.13 97.75 233.53 102.02 228.64 104.08C228.17 104.61 227.83 105.35 227.62 106.31C224.51 117.17 217.2 122.01 205.69 120.84L201.66 120.53C200.82 120.26 200.8 119.95 201.58 119.58C213.84 118.89 221.99 114.3 226.04 105.83C226.3 104.93 226.14 104.59 225.57 104.8C223.14 104.74 222.17 103.79 222.65 101.94C222.38 98.28 223.62 95.98 226.35 95.03C227.93 94.71 228.96 95.72 229.44 98.05C229.38 99.05 229.74 99.29 230.53 98.76C232.64 97.38 233.95 95.69 234.48 93.68C235.11 89.55 234.26 85.34 231.95 81.05C231.69 79.99 231.43 80.09 231.17 81.36C230.8 84.43 230.45 86.31 230.14 87.01C228.46 89.81 228.3 87.77 229.67 80.89L230.69 73.82Z" />
			<path id="&lt;Path&gt;" class="shp0" d="M192.51 82.95L193.62 80.81C193.98 80.23 194.48 80.17 195.12 80.65L197.32 82.08C197.75 82.5 197.8 82.93 197.48 83.35L196.3 85.41C195.98 86.16 195.54 86.27 194.96 85.74L192.98 84.3C192.46 84.04 192.3 83.59 192.51 82.95Z" />
			<path id="&lt;Path&gt;" class="shp0" d="M16.21 96.07L17.13 93.9C17.5 93.39 18 93.35 18.64 93.76L20.63 94.79C20.78 95.16 20.83 95.53 20.78 95.9L20.15 97.73C19.61 98.51 19.05 98.66 18.47 98.2L16.68 97.25C16.16 97.02 16 96.63 16.21 96.07Z" />
			<path id="&lt;Path&gt;" class="shp0" d="M186.76 75.96C188.33 74.43 189.04 74.35 188.88 75.72L188.65 77.47C188.59 78.11 188.12 78.8 187.23 79.54C177.24 86.85 170.79 91.32 167.9 92.96L166.88 93.76C166.14 94.55 165.77 94.31 165.77 93.04L166.09 91.77C166.45 90.61 167.01 89.76 167.74 89.23C173.53 84.99 177.37 82.4 179.26 81.45C183.73 78.27 186.23 76.44 186.76 75.96Z" />
			<g id="&lt;Group&gt;">
				<path id="&lt;Compound Path&gt;" fill-rule="evenodd" class="shp0" d="M221.38 89.79C219.91 94.92 215.68 99.24 208.68 102.74C207.53 103.05 207.05 103.71 207.26 104.72C207.32 105.94 207 106.49 206.32 106.39C205.47 106.18 205.21 105.57 205.52 104.56C205.74 103.98 205.58 103.77 205.05 103.92C204.42 104.19 203.27 103.98 201.58 103.29C201.27 102.97 200.95 103.1 200.63 103.69C199.01 106.18 196.93 107.37 194.41 107.26C190.94 107.26 189.2 105.64 189.2 102.42C189.46 101.04 188.65 100.8 186.76 101.7C176.19 110.02 165.14 113.94 153.62 113.46C143.37 112.4 138.29 108.11 138.4 100.59C138.08 99.69 137.64 99.64 137.06 100.43C135.9 101.54 134.71 103.77 133.51 107.1C132.61 109.86 131.35 111.29 129.72 111.39C125.62 110.92 123.57 108.43 123.57 103.92C122.99 98.42 125.04 94.13 129.72 91.06C130.61 90.42 132.61 88.65 135.72 85.74C138.19 83.51 139.61 81.21 139.97 78.82C140.29 77.82 139.61 77.5 137.92 77.87C137.03 78.24 136.43 78.4 136.11 78.35C134.8 78.13 134.48 77.44 135.16 76.28C135.27 75.22 135.69 74.56 136.43 74.29L139.82 73.74C142.13 73.58 143.11 74.85 142.74 77.55C142.79 80.73 139.16 85.57 131.85 92.09C130.01 93.46 128.22 95.53 126.49 98.29C124.7 100.46 124.72 102.79 126.56 105.28C128.88 108.29 130.85 108.08 132.48 104.64C132.96 103.37 133.67 101.78 134.61 99.87C136.4 96.54 137.9 94.97 139.11 95.19C140.21 95.4 140.61 96.19 140.29 97.57C141.61 105.46 146.16 109.33 153.94 109.17C164.83 109.8 175 106.65 184.47 99.71C186.68 97.91 188.44 97.01 189.75 97.01C190.91 96.85 191.28 97.81 190.86 99.87C191.17 102.68 192.67 103.69 195.35 102.89C198.98 102.2 200.74 100.46 200.63 97.65C200.9 96.91 201.27 96.91 201.74 97.65C202.11 98.71 202.69 99.29 203.47 99.4L205.21 99.55C206.37 99.61 206.92 99.11 206.87 98.05C206.92 96.46 207.55 93.25 208.76 88.43C209.76 83.19 208.82 78.72 205.92 75.01C205.56 74.06 205.37 74.11 205.37 75.17L204.82 81.12C204.82 82.13 204.69 82.95 204.43 83.59C204.11 84.44 203.69 84.22 203.16 82.95C202.95 82.63 203.08 80.78 203.56 77.39C203.56 75.7 203.61 72.65 203.71 68.26C203.82 67.41 204.03 66.8 204.34 66.43C204.66 65.95 205.08 66.25 205.61 67.3C205.77 67.73 206.14 68.5 206.71 69.61C207.66 71.14 208.81 73.74 210.18 77.39C211.34 80.78 211.44 84.43 210.5 88.35C210.34 88.99 210.71 89.02 211.6 88.43L214.68 86.05C217.62 83.45 219.81 82.71 221.23 83.83C222.54 84.62 222.59 86.61 221.38 89.79ZM219.96 88.12C219.6 87.54 218.68 87.67 217.2 88.51C216.47 88.78 214.73 90.02 212 92.25C209.89 93.46 208.73 95.16 208.53 97.33C208.1 98.5 208.36 98.87 209.31 98.44C210.26 98.13 212.05 96.94 214.68 94.87C218.73 91.16 220.49 88.91 219.96 88.12Z" />
			</g>
			<path id="&lt;Path&gt;" class="shp0" d="M179.26 114.81C178.52 114.86 178.05 115.31 177.84 116.16L177.36 117.83C177.21 118.73 177.63 119.05 178.63 118.78L186.68 116C187.46 115.73 187.96 115.18 188.17 114.33L188.57 113.06C188.72 111.84 188.41 111.42 187.62 111.79C183.79 113.38 181 114.39 179.26 114.81Z" />
			<path id="&lt;Path&gt;" class="shp0" d="M105.82 76.44C105.82 75.54 106.21 75.11 107 75.17C107.42 75.38 107.69 75.7 107.79 76.12C108.89 78.08 109.68 79.38 110.16 80.01C112.1 82.93 113.26 85.6 113.63 88.04C115.57 94.92 115.68 100.38 113.94 104.4C112.89 107.32 110.97 108.69 108.19 108.54C106.24 108.59 104.37 107.58 102.58 105.51C102.27 105.3 102.03 105.33 101.88 105.6C99.4 109.09 96.48 110.68 93.12 110.36C90.7 110.2 89.36 108.37 89.1 104.88C89.15 104.24 88.73 104.11 87.83 104.48L82.94 107.74C76.68 112.56 71.53 112.8 67.48 108.45C65.48 106.28 64.43 103.02 64.33 98.68C63.7 92.38 62.59 87.45 61.01 83.91C60.54 83.01 60.49 81.97 60.85 80.81C61.43 79.01 62.01 78.82 62.59 80.25C63.96 83.64 64.91 86.93 65.43 90.1C66.06 94.97 66.48 98.15 66.69 99.63C67.01 103.29 68.75 105.67 71.9 106.79C75.95 107.37 80.15 105.96 84.52 102.57C86.83 100.61 88.6 99.61 89.81 99.55C90.7 99.34 91.12 99.85 91.07 101.07C90.7 104.45 91.73 106.12 94.14 106.07C96.41 106.18 98.74 104.8 101.16 101.94C101.64 101.04 101.66 99.95 101.24 98.68C99.82 90.95 98.06 85.15 95.96 81.28C95.22 80.6 95.25 79.35 96.03 77.55C96.56 75.91 97.14 75.75 97.78 77.07C101.14 85.92 102.93 91.98 103.14 95.27C103.4 97.97 103.51 99.71 103.45 100.51C103.45 102.63 105.06 103.9 108.26 104.32C112.68 104.22 114.23 101.17 112.92 95.19C111.92 89.95 110.68 86.4 109.21 84.54C108.63 84.01 108.39 84.04 108.5 84.62C108.23 86.42 108.18 87.75 108.34 88.59C108.71 90.92 108.76 92.62 108.5 93.68C108.5 94.26 108.29 94.52 107.87 94.47C107.24 94.63 106.9 94.21 106.84 93.2C106.74 88.49 106.71 85.76 106.77 85.02C106.55 82.9 106.34 81.55 106.13 80.97C105.71 79.16 105.61 77.66 105.82 76.44Z" />
			<path id="&lt;Path&gt;" class="shp0" d="M83.26 74.85C83.79 74.32 84.28 74.21 84.76 74.53C85.28 74.79 84.99 75.54 83.89 76.76C78.21 81.47 74.87 84.38 73.87 85.5C73.08 86.92 72.19 87.45 71.19 87.08C70.87 86.23 71.74 84.91 73.79 83.11C79.21 78.4 82.37 75.65 83.26 74.85Z" />
			<path id="&lt;Path&gt;" class="shp0" d="M83.26 84.15C82.16 84.83 81.52 85.44 81.37 85.97L81.13 87.56C81.02 88.41 81.68 88.49 83.1 87.8L89.25 84.94C90.04 84.62 90.52 84.14 90.67 83.51L91.07 81.84C91.03 80.5 90.69 80.15 90.04 80.81C89.89 80.97 87.62 82.08 83.26 84.15Z" />
			<path id="&lt;Path&gt;" class="shp0" d="M41.65 110.39C40.66 111 40.09 111.53 39.95 112L39.73 113.4C39.64 114.15 40.23 114.22 41.52 113.61L47.05 111.09C47.76 110.81 48.19 110.39 48.33 109.83L48.69 108.36C48.66 107.17 48.35 106.86 47.76 107.44C47.62 107.58 45.59 108.57 41.65 110.39Z" />
			<path id="&lt;Path&gt;" class="shp0" d="M52.1 77.31C51.78 78.37 51.76 79.04 52.02 79.3C52.86 79.78 53.71 79.91 54.54 79.7C55.49 79.91 55.68 80.41 55.1 81.21L53.76 82.71C53.23 83.24 53.23 83.64 53.76 83.91C54.49 84.01 55.2 83.56 55.89 82.56L57.38 80.49C58.33 79.11 58.46 78.11 57.78 77.47C57.57 76.94 56.78 76.65 55.42 76.6C54.73 76.91 54.54 76.62 54.86 75.72L55.73 74.21C56.2 73.63 56.1 73.21 55.42 72.94C54.99 72.62 54.49 72.92 53.91 73.82C53.07 75.04 52.47 76.2 52.1 77.31Z" />
			<path id="&lt;Path&gt;" class="shp0" d="M55.73 90.74C54.41 89.78 53.1 90.08 51.79 91.61C50.47 93.09 49.76 94.52 49.65 95.9C50.02 96.75 49.55 97.36 48.24 97.73C45.97 98.42 44.18 97.68 42.87 95.5C41.98 93.91 41.53 92.64 41.53 91.69L40.42 88.83C40.32 87.72 39.82 87.24 38.93 87.4C38.14 87.67 37.82 88.78 37.98 90.74C38.35 92.43 38.79 93.55 39.32 94.07C40 95.08 39.82 95.82 38.77 96.3C36.98 97.62 35.14 97.65 33.25 96.38L31.28 94.79C30.43 94.58 29.98 94.84 29.93 95.59C30.04 96.54 29.99 97.49 29.78 98.44C29.56 99.18 29.98 99.9 31.03 100.59L32.46 101.54C33.93 102.12 34.14 103.61 33.09 105.99C30.83 112.03 24.99 114.86 15.58 114.49C9.9 114.54 5.69 110.44 2.96 102.17C1.38 99.1 2.53 94.1 6.42 87.17C7.79 84.15 11.47 82.61 17.47 82.56L28.36 82.56C29.56 82.29 30.59 81.79 31.43 81.05L33.01 80.01C33.95 79.06 33.93 78.58 32.93 78.58C31.35 79.01 30.3 79.12 29.78 78.9L19.12 78.5C11.92 77.23 6.87 80.2 3.98 87.4C0.19 94.76 -0.44 101.57 2.09 107.81C5.93 116.13 11.37 119.87 18.42 119.02C28.88 118.81 34.67 113.43 35.77 102.89C35.77 101.99 36.03 101.54 36.56 101.54C38.5 101.07 39.98 100.17 40.98 98.84C42.97 101.38 44.84 102.47 46.58 102.1C51.41 101.57 54.62 99.37 56.2 95.5C57.2 93.23 57.23 91.8 56.28 91.21L55.73 90.74Z" />
			<path id="&lt;Path&gt;" class="shp0" d="M156.74 92.58C156.89 93.5 157.31 93.91 157.98 93.83C158.69 93.68 159.2 93.2 159.52 92.41C160.9 87.84 162.59 84.94 164.61 83.71C165.67 83.31 166.26 82.73 166.38 81.98C166.54 80.91 166.05 80.47 164.9 80.67C163.09 81.27 161.47 83.23 160.05 86.57C159.38 88.39 158.79 89.67 158.28 90.38L157.86 89.07C157.47 86.45 156.36 85 154.55 84.72C153.68 84.76 153.25 85.34 153.25 86.45C153.21 87 153.5 87.24 154.14 87.17C155.32 87.04 156.19 88.85 156.74 92.58Z" />
			<path id="&lt;Path&gt;" class="shp0" d="M8.89 71.62C7.67 69.98 6.52 69.66 5.46 70.66C4.67 71.21 4.28 71.99 4.28 72.98C4.32 73.74 4.73 73.8 5.52 73.16C6.23 72.13 7.13 72.43 8.24 74.05C8.71 75.12 9.29 75.2 9.96 74.29C11.18 71.87 12.66 70.32 14.39 69.65L16.28 69.65C16.8 69.53 17.01 69.09 16.94 68.34C17.01 67.58 16.7 67.24 15.99 67.32C13.78 66.97 12.06 67.9 10.84 70.12L9.54 72.21L8.89 71.62Z" />
			<path id="&lt;Path&gt;" class="shp0" d="M70.6 96.69C69.89 96.06 69.77 95.45 70.24 94.85C70.36 94.17 70.66 93.97 71.13 94.25C71.92 94.69 72.43 95.37 72.67 96.28C72.79 96.84 73.04 96.8 73.44 96.16C75.13 93.94 76.55 92.8 77.7 92.76C78.48 93.04 78.72 93.74 78.4 94.85C78.29 95.53 78.07 95.8 77.76 95.69C77.04 95.13 76.47 95.23 76.04 95.98L73.26 99.26C73.06 99.85 72.61 100.09 71.9 99.97C71.43 100.05 71.21 99.64 71.25 98.72C71.21 97.57 70.99 96.89 70.6 96.69Z" />
		</g>
		<g id="&lt;Group&gt;">
			<g id="&lt;Group&gt;">
				<path id="&lt;Compound Path&gt;" fill-rule="evenodd" class="shp0" d="M26.47 130.44C26.9 131.48 27.9 131.34 29.48 130.02C30.1 128.99 31.23 128.42 32.85 128.33C34.24 128.05 34.24 128.4 32.85 129.39C31.13 130.33 30.32 132.98 30.41 137.36C30.51 141.78 30.56 147.77 30.56 155.34C30.13 158.78 31.11 160 33.5 159.01C35.08 158.49 35.34 158.8 34.29 159.93L31.64 161.9C28.34 163.31 26.47 161.74 26.04 157.18L18.87 161.9C18.44 162.23 17.96 162.44 17.43 162.54C16.79 162.68 15.93 162.6 15.28 161.76C12.17 159.83 9.73 158.61 7.97 158.09C5.77 157.58 4.98 157.98 5.6 159.29C6.94 160.7 6.89 161.78 5.45 162.54C2.63 162.72 2.16 160.98 4.02 157.32L9.19 150.12C9.9 149.61 9.59 148.88 8.25 147.94C1.18 142.11 1.03 136.14 7.82 130.02C10.26 127.77 13.46 126.8 17.43 127.13C19.3 127.27 21.45 127.84 23.67 128.96L26.47 130.44ZM18.44 158.72C19.44 159.1 20.25 159.15 20.88 158.87L26.04 155.34L26.26 151.82C26.35 150.59 25.82 150.05 24.68 150.2L17.43 149.98L12.91 149.84C11.43 149.79 10.62 150.1 10.48 150.76L8.83 152.94C8.2 153.69 8.52 154.21 9.76 154.5L17.43 158.23L18.44 158.72ZM25.04 147.58C25.8 147.58 26.18 147.16 26.18 146.31L26.18 135.59C25.94 135.03 25.51 134.42 24.89 133.76C24.13 133.29 23.55 133.36 23.17 133.97L17.43 141.38L14.13 145.68C13.13 146.9 13.22 147.54 14.42 147.58L25.04 147.58ZM18.72 134.75C19.44 135.36 20.21 135.31 21.02 134.61L21.95 133.27C22.48 132.23 22.38 131.67 21.66 131.57C20.23 130.87 18.79 130.44 17.43 130.3C6.82 128.82 0.51 141.24 9.69 147.94C10.21 148.36 10.71 148.22 11.19 147.51L17.43 139.54C18.22 139.19 17.79 138.49 17.43 138.06L17.43 134.61C17.96 134.65 18.39 134.7 18.72 134.75ZM11.69 136.93C10.55 138.44 10.91 138.79 12.77 137.99C13.92 137.05 15.38 136.96 17.15 137.71C17.24 137.81 17.34 137.92 17.43 138.06L17.43 134.61C15.93 134.54 13.42 134.75 11.69 136.93Z" />
				<path id="&lt;Path&gt;" class="shp0" d="M39.81 134.18C39.81 132.3 39.5 131.01 38.88 130.3C37.78 128.75 37.85 128.3 39.09 128.96L41.1 130.02C41.53 130.78 42.18 130.66 43.04 129.67C44.04 128.82 45.05 128.33 46.05 128.19C47.49 127.86 47.63 128.24 46.48 129.31C44.66 130.58 43.83 132.39 43.97 134.75L44.33 154.78C44.09 158.49 45.17 160.05 47.56 159.44C48.94 159.25 49.16 159.55 48.2 160.35L45.91 161.9C45.14 162.79 44.26 162.84 43.25 162.05C41.34 160.96 40.07 160.19 39.45 159.72C38.69 159.29 38.69 158.82 39.45 158.3L40.17 157.46L39.81 134.18Z" />
				<path id="&lt;Path&gt;" class="shp0" d="M393.39 134.18C393.39 132.3 393.08 131.01 392.46 130.3C391.36 128.75 391.43 128.3 392.67 128.96L394.68 130.02C395.11 130.78 395.76 130.66 396.62 129.67C397.62 128.82 398.63 128.33 399.63 128.19C401.07 127.86 401.21 128.24 400.06 129.31C398.24 130.58 397.41 132.39 397.55 134.75L397.91 154.78C397.67 158.49 398.75 160.05 401.14 159.44C402.52 159.25 402.74 159.55 401.78 160.35L399.49 161.9C398.73 162.79 397.84 162.84 396.83 162.05C394.92 160.96 393.66 160.19 393.03 159.72C392.27 159.29 392.27 158.82 393.03 158.3L393.75 157.46L393.39 134.18Z" />
				<path id="&lt;Compound Path&gt;" fill-rule="evenodd" class="shp0" d="M102.55 143.5C102.06 143.99 101.76 145.09 101.68 146.8L101.68 155.62L100.44 156.23C98.44 156.39 94.67 158.03 89.11 161.13C88.52 161.78 87.86 161.94 87.11 161.62C82.21 159.82 78.15 159.05 74.91 159.29C71.09 159.46 69.26 161.17 69.43 164.44C69.6 165.66 69.31 166.32 68.56 166.4C67.23 166.89 66.61 166.31 66.69 164.68C66.61 162.8 67.94 160.97 70.67 159.17C73.25 158.11 74.25 156.48 73.66 154.27C72.83 151.9 71.42 151.41 69.43 152.8C67.94 153.13 67.69 152.68 68.68 151.46C69.51 150.4 70.59 149.74 71.92 149.49C73.58 149.66 74.08 148.8 73.41 146.93C72.42 143.66 70.39 142.86 67.31 144.52C65.87 145.17 65.54 144.84 66.32 143.54C67.42 142.02 69.14 141.31 71.46 141.42C73.01 141.85 73.66 141.36 73.41 139.95C73.19 138.09 74.42 135.48 77.11 132.11C78.22 131.24 78.11 130.8 76.78 130.8C76.22 130.69 75.23 130.69 73.79 130.8C69.69 130.15 67.37 130.64 66.82 132.27C65.38 133.36 65.04 132.76 65.82 130.48C67.98 127.1 71.17 126.22 75.41 127.82C77.23 128.56 79.89 128.6 83.38 127.94C83.96 127.78 84.54 127.82 85.12 128.07C78.56 130.92 76.07 137.33 77.65 147.29C78.06 151.13 77.4 154.19 75.66 156.48C74.91 157.62 75.03 157.91 76.03 157.34C76.61 157.34 77.52 156.56 78.77 155.01C80.85 153.54 81.97 151.74 82.13 149.62L82.13 136.52C82.38 132.03 86.24 128.93 93.71 127.21C94.87 126.8 95.79 127.25 96.45 128.56L100.69 134.31C101.68 135.29 101.89 136.23 101.31 137.13L98.2 139.7C97.12 140.19 97.2 140.72 98.44 141.29L102.55 143.5ZM96.95 153.82C97.06 152.52 95.84 152 93.3 152.27C91.47 152.27 90.47 152.93 90.31 154.23L90.39 156.43C90.39 157.31 90.59 157.58 90.97 157.25L93.79 157.09C96.56 156.11 97.61 155.02 96.95 153.82ZM97.07 135.66L93.09 130.39C92.59 129.33 91.97 129.13 91.22 129.78L89.11 130.76C87.28 131.41 86.37 133.05 86.37 135.66L86.49 147.78C86.57 150.39 84.24 153.37 79.48 156.72L89.11 157.12L89.35 138.11C89.69 137.05 90.1 137.01 90.6 137.99L90.6 140.93C90.52 142.15 90.85 142.43 91.6 141.78L97.07 137.74C97.9 137.25 97.9 136.56 97.07 135.66ZM96.78 145.66C96.95 144.79 96.01 144.03 93.96 143.38C92.02 143.05 90.89 143.54 90.56 144.85C90.23 146.04 91.11 146.64 93.21 146.64C95.93 146.7 97.12 146.37 96.78 145.66ZM97.2 148.76C97.25 147.95 96.95 147.67 96.28 147.95C95.18 148.49 93.74 148.54 91.97 148.11C90.75 147.67 90.23 147.94 90.39 148.93L90.47 150.48C90.31 151.4 90.7 151.65 91.64 151.21C92.36 150.61 93.85 150.61 96.12 151.21C96.78 151.54 97.03 151.37 96.87 150.72L97.2 148.76Z" />
				<path id="&lt;Path&gt;" class="shp0" d="M105.43 139.51C104.6 140.1 104.6 140.7 105.43 141.3C106.15 141.19 106.57 141.93 106.68 143.51L106.34 156.08C106.18 156.73 106.01 157.22 105.85 157.55C104.96 158.47 105.07 159.15 106.18 159.59C108.11 160.68 109.3 161.36 109.75 161.63C110.69 162.34 111.63 162.17 112.57 161.14L117.22 157.71C117.66 157.22 117.94 157.38 118.05 158.2C118.1 159.34 118.88 160.32 120.37 161.14C121.42 161.74 122.39 161.66 123.28 160.89L125.36 159.43C125.74 159.21 125.91 158.96 125.85 158.69C125.91 158.36 125.69 158.23 125.19 158.28L123.86 158.37C122.59 157.87 122.09 156.92 122.37 155.51L122.87 143.67C123.03 142.31 123.31 141.38 123.69 140.89C124.36 140.35 124.3 139.81 123.53 139.26L121.12 137.3C120.51 136.59 119.88 136.57 119.21 137.22L117.47 138.86C116.78 139.34 116.74 139.86 117.35 140.4C118.09 140.68 118.52 141.98 118.63 144.32L118.13 154.2C118.13 154.91 117.85 155.4 117.3 155.67C115.25 156.81 113.87 157.71 113.15 158.37L111.66 157.71C110.83 157.38 110.47 156.54 110.58 155.18L111.16 143.02C111.16 142.04 111.43 141.36 111.99 140.98C112.65 140.43 112.68 139.91 112.07 139.42L109.25 137.3C108.75 136.92 108.31 136.98 107.92 137.46L105.43 139.51Z" />
				<path id="&lt;Path&gt;" class="shp0" d="M132.69 128.82C131.03 128.01 129.91 127.56 129.33 127.48C128 127.56 127.67 127.88 128.33 128.46C129.99 129.03 130.65 130.62 130.32 133.23L129.45 154.66C129.78 156.46 129.2 157.76 127.71 158.58C126.96 159.07 127.04 159.6 127.96 160.17L130.57 162.01C131.48 162.42 132.32 162.33 133.06 161.76L134.93 160.17C135.6 159.76 135.68 159.31 135.18 158.82C134.18 158.01 133.81 157.07 134.06 156.01L134.43 144.5C134.43 144.25 134.76 143.97 135.43 143.64L138.67 141.31C140.08 140.42 140.82 140.94 140.91 142.9L140.78 155.52C141.7 161.72 139 166.01 132.69 168.37C132.77 168.95 133.35 169.03 134.43 168.62C142.15 166.33 145.68 162.21 145.02 156.25C145.35 148.9 145.43 144.29 145.26 142.42C144.77 137.76 143.23 136.25 140.66 137.89L135.55 141.8C134.72 142.7 134.43 142.29 134.68 140.58L134.93 132.37C135.18 130.5 135.84 129.15 136.92 128.33C138.17 127.35 137.96 126.86 136.3 126.86C134.72 127.27 133.52 127.93 132.69 128.82Z" />
				<path id="&lt;Compound Path&gt;" fill-rule="evenodd" class="shp0" d="M168.38 158.75L165.27 161.2C164.27 161.85 163.52 161.81 163.02 161.07C162.28 160.83 161.4 159.77 160.41 157.89C159.83 158.14 158.17 159.2 155.43 161.07C154.43 161.81 153.64 161.93 153.06 161.44C151.15 159.97 150.11 158.18 149.95 156.06C149.2 153.44 150.45 150.59 153.68 147.48C154.51 147.08 154.51 146.22 153.68 144.91L150.82 139.4C150.16 138.2 150.36 137.76 151.44 138.05C154.18 138.03 156.05 137.61 157.04 136.79C157.6 136.25 158.24 136.27 158.95 136.87C160.61 137.79 161.72 138.2 162.28 138.09C163.77 138.53 164.68 138.5 165.02 138.01C166.29 138.01 166.65 138.42 166.09 139.24C165.43 140.49 165.18 141.31 165.35 141.69C165.01 150.18 164.88 154.26 164.93 153.93C164.99 157.14 165.79 158.39 167.34 157.69C167.51 157.52 167.81 157.47 168.25 157.52C168.92 157.74 168.96 158.15 168.38 158.75ZM159.78 148.95C158.23 148.24 157.16 147.84 156.55 147.73C155.94 147.29 155.44 147.38 155.05 147.97C153.72 150.26 153.25 152.25 153.64 153.93C154.42 156.44 155.11 157.77 155.72 157.93C155.99 158.37 156.6 158.31 157.54 157.77L159.37 156.22C160.09 156.22 160.42 155.54 160.37 154.18L160.62 150.67C160.67 149.58 160.39 149.01 159.78 148.95ZM159.78 141.44C157.96 140.68 155.88 140.27 153.56 140.22C152.84 140.16 152.65 140.46 152.98 141.12L155.05 144.87C155.27 145.47 155.77 145.99 156.55 146.42L159.54 147.65C160.14 147.97 160.48 147.78 160.53 147.08L160.7 143.07C160.81 141.99 160.5 141.44 159.78 141.44Z" />
				<path id="&lt;Compound Path&gt;" fill-rule="evenodd" class="shp0" d="M218.19 158.88L215.07 161.33C214.08 161.98 213.33 161.94 212.83 161.21C212.09 160.96 211.21 159.9 210.22 158.02C209.64 158.27 207.98 159.33 205.24 161.21C204.24 161.94 203.45 162.06 202.87 161.57C200.96 160.1 199.92 158.31 199.76 156.19C199.01 153.58 200.26 150.72 203.5 147.61C204.32 147.21 204.32 146.35 203.5 145.04L200.63 139.53C199.97 138.34 200.17 137.89 201.25 138.19C203.99 138.16 205.86 137.74 206.86 136.92C207.41 136.38 208.05 136.4 208.77 137C210.43 137.93 211.53 138.33 212.09 138.23C213.58 138.66 214.49 138.64 214.83 138.14C216.1 138.14 216.46 138.55 215.9 139.37C215.24 140.62 214.99 141.44 215.16 141.82C214.83 150.31 214.69 154.39 214.74 154.06C214.8 157.27 215.6 158.53 217.15 157.82C217.32 157.66 217.62 157.6 218.06 157.65C218.73 157.87 218.77 158.28 218.19 158.88ZM209.6 149.08C208.05 148.38 206.97 147.97 206.36 147.86C205.75 147.42 205.25 147.51 204.86 148.11C203.54 150.39 203.07 152.38 203.45 154.06C204.23 156.57 204.92 157.9 205.53 158.06C205.8 158.5 206.41 158.44 207.36 157.9L209.18 156.35C209.9 156.35 210.23 155.67 210.18 154.31L210.43 150.8C210.48 149.71 210.21 149.14 209.6 149.08ZM209.6 141.57C207.77 140.81 205.69 140.4 203.37 140.35C202.65 140.3 202.46 140.6 202.79 141.25L204.86 145C205.09 145.6 205.58 146.12 206.36 146.55L209.35 147.78C209.96 148.1 210.29 147.91 210.34 147.21L210.51 143.21C210.62 142.12 210.32 141.57 209.6 141.57Z" />
				<path id="&lt;Compound Path&gt;" fill-rule="evenodd" class="shp0" d="M299.19 159.54L296.08 161.99C295.08 162.64 294.33 162.6 293.84 161.87C293.09 161.62 292.22 160.56 291.22 158.68C290.64 158.93 288.98 159.99 286.24 161.87C285.24 162.6 284.45 162.72 283.87 162.23C281.96 160.76 280.93 158.97 280.76 156.85C280.01 154.23 281.26 151.38 284.5 148.27C285.33 147.87 285.33 147.01 284.5 145.7L281.63 140.19C280.97 139 281.18 138.55 282.26 138.85C284.99 138.82 286.86 138.4 287.86 137.58C288.41 137.04 289.05 137.06 289.77 137.66C291.43 138.59 292.54 138.99 293.09 138.89C294.58 139.32 295.49 139.29 295.83 138.8C297.1 138.8 297.46 139.21 296.91 140.03C296.24 141.28 295.99 142.1 296.16 142.48C295.83 150.97 295.69 155.05 295.74 154.72C295.8 157.93 296.6 159.19 298.15 158.48C298.32 158.32 298.62 158.26 299.06 158.31C299.73 158.53 299.77 158.94 299.19 159.54ZM290.6 149.74C289.05 149.03 287.97 148.63 287.36 148.52C286.75 148.08 286.25 148.16 285.87 148.76C284.54 151.05 284.07 153.03 284.45 154.72C285.23 157.23 285.92 158.56 286.53 158.72C286.81 159.16 287.42 159.1 288.36 158.56L290.18 157.01C290.9 157.01 291.23 156.33 291.18 154.97L291.43 151.46C291.48 150.37 291.21 149.8 290.6 149.74ZM290.6 142.23C288.77 141.47 286.7 141.06 284.37 141.01C283.65 140.95 283.46 141.25 283.79 141.9L285.87 145.66C286.09 146.26 286.59 146.78 287.36 147.21L290.35 148.43C290.96 148.76 291.29 148.57 291.35 147.87L291.51 143.86C291.62 142.78 291.32 142.23 290.6 142.23Z" />
				<path id="&lt;Compound Path&gt;" fill-rule="evenodd" class="shp0" d="M390.15 159.54L387.03 161.99C386.04 162.64 385.29 162.6 384.79 161.87C384.05 161.62 383.17 160.56 382.18 158.68C381.6 158.93 379.94 159.99 377.2 161.87C376.2 162.6 375.41 162.72 374.84 162.23C372.92 160.76 371.88 158.97 371.72 156.85C370.97 154.23 372.22 151.38 375.46 148.27C376.29 147.87 376.29 147.01 375.46 145.7L372.59 140.19C371.93 139 372.13 138.55 373.21 138.85C375.95 138.82 377.82 138.4 378.82 137.58C379.37 137.04 380.01 137.06 380.73 137.66C382.39 138.59 383.49 138.99 384.04 138.89C385.54 139.32 386.45 139.29 386.79 138.8C388.06 138.8 388.42 139.21 387.87 140.03C387.2 141.28 386.95 142.1 387.12 142.48C386.79 150.97 386.65 155.05 386.7 154.72C386.76 157.93 387.56 159.19 389.11 158.48C389.28 158.32 389.58 158.26 390.02 158.31C390.69 158.53 390.73 158.94 390.15 159.54ZM381.56 149.74C380.01 149.03 378.93 148.63 378.32 148.52C377.71 148.08 377.21 148.16 376.83 148.76C375.5 151.05 375.03 153.03 375.41 154.72C376.19 157.23 376.88 158.56 377.49 158.72C377.77 159.16 378.37 159.1 379.31 158.56L381.14 157.01C381.86 157.01 382.19 156.33 382.14 154.97L382.39 151.46C382.44 150.37 382.16 149.8 381.56 149.74ZM381.56 142.23C379.73 141.47 377.66 141.06 375.33 141.01C374.61 140.95 374.42 141.25 374.75 141.9L376.83 145.66C377.05 146.26 377.55 146.78 378.32 147.21L381.31 148.43C381.92 148.76 382.25 148.57 382.31 147.87L382.47 143.86C382.58 142.78 382.28 142.23 381.56 142.23Z" />
				<path id="&lt;Compound Path&gt;" fill-rule="evenodd" class="shp0" d="M548.21 159.01L545.09 161.46C544.1 162.11 543.35 162.07 542.85 161.34C542.11 161.09 541.24 160.03 540.24 158.16C539.66 158.4 538 159.46 535.26 161.34C534.26 162.07 533.47 162.2 532.89 161.71C530.98 160.24 529.95 158.44 529.78 156.32C529.03 153.71 530.28 150.85 533.51 147.75C534.34 147.34 534.34 146.48 533.51 145.18L530.65 139.66C529.99 138.47 530.19 138.02 531.27 138.32C534.01 138.29 535.88 137.87 536.87 137.05C537.43 136.51 538.07 136.53 538.79 137.13C540.44 138.06 541.55 138.47 542.11 138.36C543.6 138.8 544.52 138.77 544.84 138.27C546.12 138.27 546.48 138.68 545.93 139.5C545.26 140.75 545.01 141.57 545.17 141.95C544.84 150.44 544.71 154.52 544.76 154.19C544.82 157.41 545.62 158.66 547.17 157.95C547.33 157.79 547.64 157.73 548.08 157.79C548.75 158 548.79 158.41 548.21 159.01ZM539.62 149.22C538.07 148.51 536.99 148.1 536.38 147.99C535.77 147.56 535.27 147.64 534.88 148.24C533.56 150.52 533.09 152.51 533.47 154.19C534.25 156.7 534.94 158.03 535.55 158.2C535.83 158.63 536.44 158.58 537.38 158.03L539.2 156.48C539.92 156.48 540.25 155.8 540.2 154.44L540.44 150.93C540.5 149.84 540.23 149.27 539.62 149.22ZM539.62 141.7C537.79 140.94 535.71 140.53 533.39 140.48C532.67 140.43 532.48 140.73 532.81 141.38L534.88 145.13C535.11 145.73 535.61 146.25 536.38 146.69L539.37 147.91C539.97 148.23 540.3 148.04 540.36 147.34L540.53 143.34C540.64 142.25 540.33 141.7 539.62 141.7Z" />
				<path id="&lt;Path&gt;" class="shp0" d="M186.78 143.95C187.05 142.04 186.58 140.93 185.37 140.6L184.79 140.76C183.79 140.82 183.57 140.44 184.12 139.62C185.12 138.86 185.75 138.34 186.03 138.07C186.64 137.42 187.33 137.17 188.1 137.33C189.27 137.61 190.15 138.53 190.76 140.11C190.82 140.71 191.2 140.82 191.92 140.43L195.33 137.5C195.88 137.12 196.54 137.14 197.32 137.58L199.81 139.7C200.25 140.19 200.22 140.68 199.73 141.17L198.15 142.64C197.76 143.29 197.21 143.27 196.49 142.56L195.24 141.58C194.52 140.87 193.69 140.93 192.75 141.74C191.7 141.96 191.18 142.64 191.18 143.78L191.18 155.46C190.95 157.36 191.45 158.42 192.67 158.64C193.5 159.02 194.22 159.02 194.83 158.64C195.16 158.2 195.49 158.2 195.82 158.64C196.05 159.13 195.83 159.51 195.16 159.78L192.42 161.91C191.7 162.83 190.68 162.7 189.35 161.5C187.63 160.41 186.5 159.7 185.95 159.38C184.95 159.05 184.95 158.45 185.95 157.58C186.33 157.14 186.61 156.73 186.78 156.35L186.78 143.95Z" />
				<path id="&lt;Path&gt;" class="shp0" d="M515.43 144.74C515.7 142.83 515.23 141.72 514.02 141.39L513.43 141.55C512.44 141.61 512.22 141.23 512.77 140.41C513.77 139.65 514.41 139.13 514.68 138.86C515.29 138.21 515.98 137.96 516.76 138.12C517.92 138.4 518.81 139.32 519.42 140.9C519.47 141.5 519.86 141.61 520.57 141.23L523.98 138.29C524.53 137.91 525.2 137.94 525.97 138.37L528.46 140.49C528.9 140.98 528.88 141.47 528.38 141.96L526.8 143.43C526.41 144.08 525.86 144.06 525.14 143.35L523.89 142.37C523.17 141.66 522.34 141.72 521.41 142.54C520.35 142.75 519.82 143.43 519.82 144.57L519.82 156.25C519.61 158.15 520.11 159.21 521.32 159.43C522.15 159.81 522.87 159.81 523.48 159.43C523.82 159 524.15 159 524.47 159.43C524.7 159.92 524.48 160.3 523.81 160.58L521.08 162.7C520.35 163.62 519.33 163.49 518 162.29C516.28 161.2 515.15 160.49 514.6 160.16C513.6 159.84 513.6 159.24 514.6 158.37C514.99 157.93 515.26 157.53 515.43 157.15L515.43 144.74Z" />
				<path id="&lt;Compound Path&gt;" fill-rule="evenodd" class="shp0" d="M277.69 157.96L275.02 161.96C274.64 162.78 274.09 163.08 273.37 162.86C269.53 162.04 266.64 162.59 264.72 164.49C263.57 165.31 263.19 165.09 263.57 163.84C264.29 161.01 266.55 156.66 270.34 150.78C270.77 149.96 270.63 149.47 269.91 149.31C266.74 147.24 263.57 146.91 260.4 148.33C258.72 148.6 258.02 149.5 258.31 151.02L258.17 156.41C257.26 164.14 253.63 166.89 247.29 164.65C242.15 162.53 239.03 162.29 237.93 163.92C237.11 164.63 236.85 164.44 237.14 163.35C239.63 159.87 243.14 159.06 247.65 160.94C250.53 161.68 251.97 160.33 251.97 156.9C251.4 152.98 249.31 151.47 245.71 152.37C244.7 152.7 244.48 152.53 245.06 151.88C246 150.25 247.72 149.84 250.25 150.66C250.25 146.66 248.3 145.06 244.41 145.88C243.55 146.12 243.29 145.88 243.65 145.14C245.38 143.51 247.76 143.43 250.79 144.9C249.92 140.41 247.65 138.57 243.98 139.39C242.97 139.63 242.83 139.35 243.55 138.53C245.92 136.74 248.44 137.02 251.11 139.39L251.61 134.29L265.23 127.59C269.88 128.57 273.03 130.75 274.66 134.12C278.07 141.36 276.47 148.36 269.84 155.11L268.04 157.96C267.7 158.61 267.87 158.83 268.54 158.61C270.32 158.12 272.31 158.18 274.52 158.78C275.09 158.99 275.58 158.81 275.96 158.21L276.9 156.74C277.14 156.36 277.42 156.3 277.76 156.57C278.1 156.9 278.07 157.36 277.69 157.96ZM257.23 133.23C255.98 133.17 255.38 134.4 255.43 136.9L254.93 152.98C254.73 156.52 254.11 158.86 253.06 160C252.62 160.71 252.74 160.95 253.42 160.74C255.96 160.41 257.26 157.99 257.3 153.47L257.95 133.88C258.05 132.95 257.81 132.74 257.23 133.23ZM259.46 140.33C263.35 142.62 267.1 142.62 270.7 140.33C272.24 139.67 272.43 138.42 271.28 136.57C268.73 132.11 265.18 130.51 260.62 131.76C259.42 131.92 258.87 132.41 258.96 133.23L258.82 138.12C258.62 139.54 258.84 140.28 259.46 140.33ZM270.56 148.17C270.99 148.49 271.35 148.36 271.64 147.76C272.07 147 272.38 145.2 272.57 142.37C272.72 141.44 272.5 141.17 271.93 141.55C270.1 142.64 267.96 143.21 265.52 143.27C263.16 143.27 261.15 142.75 259.46 141.71C258.84 141.39 258.55 141.61 258.6 142.37L258.53 146.62C258.43 147.1 258.7 147.21 259.32 146.94C260.86 146.18 262.66 145.91 264.72 146.12C266.4 146.29 268.35 146.97 270.56 148.17Z" />
				<path id="&lt;Path&gt;" class="shp0" d="M306.81 132.91L302.33 138.87C301.28 139.47 301.53 140.23 303.08 141.15C303.47 141.37 303.6 142.11 303.49 143.36L303.41 156.66C303.52 157.42 303.24 158.08 302.58 158.62C301.92 159.06 301.97 159.52 302.74 160.01C304.52 160.61 306.04 161.37 307.31 162.3C308.09 162.79 308.75 162.62 309.3 161.81L312.54 159.36C313.26 158.76 313.23 158.43 312.46 158.38C310.91 159.09 309.72 158.95 308.89 157.97C308 158.08 307.7 156.58 307.97 153.48L307.97 141.56C307.92 140.69 308.28 140.28 309.05 140.34L311.96 140.34C312.46 140.23 312.71 139.96 312.71 139.52C312.76 139.14 312.4 138.92 311.63 138.87L309.22 138.87C308.39 139.09 308.03 138.84 308.14 138.13L307.97 133.24C307.97 132.36 307.59 132.25 306.81 132.91Z" />
				<path id="&lt;Compound Path&gt;" fill-rule="evenodd" class="shp0" d="M345.58 142.4L345.58 157.98C345.58 158.71 345.33 159.32 344.84 159.78C343.68 160.03 342.1 160.8 340.11 162.11C339.44 163.17 338.69 163.38 337.86 162.72C335.46 161.42 332.97 160.4 330.39 159.66C329.06 159.5 328.98 158.8 330.14 157.58C330.56 156.68 330.77 155.62 330.77 154.39L330.77 142.52C330.52 141.7 330.85 141.13 331.76 140.8C333.34 140.48 334.96 139.66 336.62 138.35C337.28 137.45 337.99 137.33 338.74 137.99C339.9 139.13 341.68 139.99 344.09 140.56C345.25 140.8 345.75 141.42 345.58 142.4ZM341.35 157.46L341.35 145.46C341.6 143.91 341.06 143.05 339.73 142.89L336.74 141.9C335.75 141.58 335.25 141.95 335.25 143.01L335.25 154.89C335.08 156.03 335.21 156.68 335.62 156.85C336.45 157.66 337.9 158.23 339.98 158.56C341.06 158.97 341.52 158.6 341.35 157.46Z" />
				<path id="&lt;Compound Path&gt;" fill-rule="evenodd" class="shp0" d="M672.64 142.66L672.64 158.24C672.64 158.98 672.4 159.58 671.91 160.05C670.79 160.29 669.26 161.07 667.32 162.37C666.68 163.44 665.96 163.64 665.15 162.99C662.82 161.68 660.4 160.66 657.9 159.92C656.61 159.76 656.53 159.07 657.67 157.84C658.07 156.94 658.27 155.88 658.27 154.66L658.27 142.78C658.02 141.96 658.35 141.39 659.24 141.07C660.77 140.74 662.34 139.92 663.95 138.62C664.59 137.72 665.27 137.6 666 138.25C667.12 139.39 668.85 140.25 671.19 140.82C672.32 141.07 672.81 141.68 672.64 142.66ZM668.54 157.72L668.54 145.72C668.78 144.17 668.25 143.31 666.96 143.15L664.07 142.17C663.1 141.84 662.61 142.21 662.61 143.27L662.61 155.15C662.45 156.29 662.58 156.95 662.98 157.11C663.79 157.92 665.2 158.49 667.2 158.82C668.25 159.23 668.7 158.87 668.54 157.72Z" />
				<path id="&lt;Path&gt;" class="shp0" d="M351.05 157.19C350.72 158.01 350.35 158.58 349.93 158.91C349.19 159.64 349.31 160.25 350.31 160.75L352.3 162.34C352.88 162.83 353.59 162.79 354.42 162.21L356.41 160.5C356.91 159.93 356.99 159.56 356.66 159.4C355.66 158.83 355.25 157.97 355.41 156.83L355.91 145.19C355.83 144.05 356.2 143.32 357.03 142.99L358.65 141.76C359.81 140.87 360.77 140.82 361.51 141.64L362.02 142.74C362.59 143.8 362.8 144.87 362.64 145.93L362.02 155.72C361.77 158.34 362.47 160.34 364.13 161.73C365.13 162.62 366.25 162.5 367.49 161.36L369.61 159.52C369.86 158.95 369.65 158.74 368.99 158.91C367.41 159.48 366.66 158.13 366.75 154.87L366.99 144.95C367.24 142.58 367.95 141.03 369.11 140.3C369.77 139.24 369.4 138.91 367.99 139.32C367.49 140.21 366.87 140.34 366.12 139.68L363.76 137.85C363.34 137.11 362.68 137.07 361.76 137.73L357.03 141.03C356.45 141.6 356.08 141.52 355.91 140.79C355.16 139.07 354.21 138.09 353.05 137.85C352.22 137.68 351.55 137.93 351.05 138.58L349.31 139.8C348.73 140.38 348.85 140.79 349.68 141.03C351.26 141.03 351.89 142.3 351.55 144.83L351.05 157.19Z" />
				<path id="&lt;Path&gt;" class="shp0" d="M447.15 158.43C446.82 159.25 446.44 159.82 446.03 160.14C445.28 160.88 445.4 161.49 446.4 161.98L448.4 163.57C448.98 164.06 449.68 164.02 450.51 163.45L452.51 161.74C453 161.16 453.09 160.8 452.75 160.63C451.76 160.06 451.34 159.2 451.51 158.06L452.01 146.43C451.92 145.29 452.3 144.55 453.12 144.22L454.75 143C455.91 142.1 456.86 142.06 457.61 142.88L458.1 143.98C458.69 145.04 458.9 146.1 458.73 147.16L458.1 156.96C457.86 159.57 458.56 161.57 460.22 162.96C461.22 163.86 462.34 163.74 463.59 162.59L465.7 160.76C465.96 160.18 465.75 159.98 465.07 160.14C463.5 160.71 462.75 159.37 462.84 156.1L463.09 146.18C463.34 143.82 464.04 142.27 465.21 141.53C465.87 140.47 465.5 140.14 464.09 140.55C463.59 141.45 462.96 141.57 462.22 140.92L459.85 139.08C459.44 138.35 458.77 138.31 457.86 138.96L453.12 142.27C452.55 142.84 452.17 142.75 452.01 142.02C451.26 140.31 450.3 139.33 449.14 139.08C448.31 138.92 447.65 139.17 447.15 139.82L445.41 141.04C444.83 141.61 444.95 142.02 445.78 142.27C447.36 142.27 447.98 143.53 447.65 146.06L447.15 158.43Z" />
				<path id="&lt;Path&gt;" class="shp0" d="M552.52 156.85C552.19 157.67 551.81 158.24 551.4 158.57C550.65 159.3 550.78 159.91 551.77 160.4L553.76 161.99C554.35 162.48 555.05 162.44 555.88 161.87L557.88 160.16C558.37 159.58 558.45 159.22 558.12 159.05C557.13 158.48 556.71 157.63 556.88 156.48L557.38 144.85C557.3 143.71 557.67 142.97 558.49 142.64L560.12 141.42C561.28 140.52 562.23 140.48 562.98 141.3L563.47 142.4C564.06 143.46 564.27 144.52 564.1 145.58L563.47 155.38C563.23 157.99 563.93 159.99 565.59 161.38C566.59 162.28 567.72 162.16 568.96 161.01L571.07 159.18C571.32 158.61 571.11 158.4 570.45 158.57C568.87 159.14 568.13 157.79 568.21 154.52L568.46 144.61C568.71 142.24 569.42 140.69 570.57 139.95C571.24 138.89 570.87 138.56 569.46 138.97C568.96 139.87 568.34 139.99 567.59 139.34L565.22 137.5C564.81 136.77 564.14 136.73 563.23 137.38L558.49 140.68C557.92 141.26 557.54 141.17 557.38 140.44C556.63 138.73 555.67 137.75 554.51 137.5C553.68 137.34 553.02 137.58 552.52 138.23L550.78 139.46C550.2 140.03 550.32 140.44 551.15 140.68C552.73 140.68 553.35 141.95 553.02 144.48L552.52 156.85Z" />
				<path id="&lt;Path&gt;" class="shp0" d="M445.57 128.77C441.42 128.19 439.06 130.97 438.47 137.09C437.98 142.89 438.1 147.26 438.85 150.2C439.76 157.14 438.43 160.81 434.86 161.22C432.81 161.3 430.95 160.36 429.29 158.4C428.36 157.58 428.39 157.09 429.38 156.93C431.79 155.95 433.16 154.56 433.49 152.77C434.24 150.4 434.28 147.83 433.62 145.05C432.54 137.13 434.45 131.42 439.35 127.91C438.7 127.75 437.91 127.67 436.98 127.67C436.48 127.67 434.98 127.71 432.46 127.79C427.84 126.24 424.7 126.6 423.03 128.89C421.62 130.28 421.62 130.69 423.03 130.11C424.03 128.97 425.98 128.81 428.89 129.63L433.24 129.63C434.41 129.54 434.66 129.83 433.99 130.48C431.17 133.17 429.76 136.89 429.76 141.62C426.77 141.22 424.53 141.67 423.03 142.97C422.29 143.95 422.5 144.24 423.66 143.83C427.81 141.79 429.96 143.75 430.13 149.71C429.96 154.36 428.06 156.56 424.4 156.32C421 156.24 418.88 157.26 418.05 159.38C417.56 160.44 417.72 160.64 418.55 159.99C420.29 158.6 423.2 158.85 427.27 160.73C434.16 165.14 439.01 163.58 441.84 156.07C442.67 152.64 442.83 149.26 442.34 145.91C441.01 136.77 442.09 131.06 445.57 128.77Z" />
				<path id="&lt;Compound Path&gt;" fill-rule="evenodd" class="shp0" d="M488.2 138.43L487.08 140.27L482.22 146.14C481.31 147.2 481.14 147.94 481.73 148.35L485.21 150.43C486.04 150.51 486.38 151.45 486.21 153.24L485.59 159.61C485.59 160.59 485.17 161.12 484.34 161.2C482.18 161.86 480.73 162.55 479.98 163.29C479.07 164.1 478.2 164.18 477.37 163.53C473.38 161.65 470.31 161.41 468.15 162.8C466.83 163.86 466.49 163.69 467.16 162.31L474.13 153.86L471.26 152.76C469.77 151.7 468.9 150.92 468.65 150.43L469.15 143.32C468.98 142.51 469.44 141.98 470.52 141.73C473.59 140.92 475.54 139.86 476.37 138.55L478.24 138.55C479.24 139.94 481.06 140.51 483.72 140.27C485.13 140.27 485.96 139.82 486.21 138.92C485.46 136.63 485.84 135.37 487.33 135.12C488.74 135.53 489.03 136.63 488.2 138.43ZM481.35 155.33C480.85 152.39 479.65 151.24 477.74 151.9L472.39 158.02C471.72 158.67 471.47 159.29 471.64 159.86C473.63 159.2 476.21 159.41 479.36 160.47C480.27 161.04 480.73 160.96 480.73 160.23C481.4 158.84 481.6 157.21 481.35 155.33ZM481.35 143.57L479.11 143.2C477.37 142.94 476.25 142.64 475.75 142.31C474.67 141.68 474 142.14 473.76 143.7C472.84 147.53 473.26 149.65 475 150.06C475.64 150.8 476.42 150.76 477.34 149.94L481.48 144.92C482.31 144.26 482.26 143.82 481.35 143.57Z" />
				<path id="&lt;Path&gt;" class="shp0" d="M490.86 140.4C490.11 140.97 490.19 141.58 491.11 142.24C492.1 142.64 492.52 143.66 492.35 145.3C492.52 152.48 492.19 156.85 491.36 158.4C490.78 159.3 490.9 159.99 491.73 160.48L495.09 162.32C496.09 162.97 496.92 163.01 497.59 162.44L502.19 158.89C503.1 158.07 503.64 158.15 503.81 159.13C504.31 161.26 505.47 162.28 507.3 162.2C508.87 161.71 509.87 161.18 510.28 160.6C511.03 160.36 511.33 159.91 511.16 159.26C510.74 159.09 510.45 159.18 510.28 159.5C508.38 159.58 507.55 158.11 507.79 155.09L508.17 145.54C508.17 143.99 508.46 142.77 509.04 141.87C509.62 140.97 509.58 140.36 508.92 140.03L506.42 138.07C506.09 137.42 505.64 137.38 505.05 137.95L503.18 139.42C502.36 140.07 502.32 140.77 503.06 141.5C503.73 141.66 504.06 142.77 504.06 144.81L503.81 154.11C504.06 155.5 503.64 156.4 502.56 156.81L499.71 158.64C499.37 159.3 498.62 159.3 497.46 158.64C496.38 158.15 495.92 157.13 496.09 155.58L496.34 144.68C496.42 143.38 496.63 142.52 496.96 142.11C498.04 141.46 498.12 140.77 497.21 140.03L495.09 138.44C494.43 137.62 493.76 137.66 493.1 138.56L490.86 140.4Z" />
				<path id="&lt;Path&gt;" class="shp0" d="M576.15 141.4C575.49 141.72 575.41 142.17 575.91 142.74C576.57 143.48 576.81 144.54 576.65 145.93L576.53 156.09C576.28 157.48 575.94 158.46 575.53 159.03C574.95 159.77 575.11 160.21 576.03 160.38C578.6 161.11 580.47 161.93 581.63 162.83C582.29 163.15 582.96 163.03 583.62 162.46L586.86 160.01C587.77 159.03 587.73 158.66 586.74 158.91L585.12 159.89L584.37 159.77L581.26 158.05C580.76 158.05 580.56 157.19 580.64 155.48L580.76 144.22C581.17 141.93 581.8 141.07 582.63 141.64C583.96 142.37 584.87 142.82 585.37 142.99C586.2 143.23 586.86 142.95 587.36 142.13L588.1 141.03C588.1 141.03 587.98 140.75 587.74 140.18C586.16 139.52 584.83 138.75 583.74 137.85C583.25 137.11 582.84 137.07 582.51 137.73C580.6 139.77 578.48 140.99 576.15 141.4Z" />
				<path id="&lt;Compound Path&gt;" fill-rule="evenodd" class="shp0" d="M604.93 145.01L596.71 151.87C595.88 152.44 595.51 153.14 595.6 153.96L595.72 156.28C595.47 156.93 595.76 157.42 596.59 157.75L598.71 158.73C599.71 159.54 600.79 159.5 601.95 158.61L603.44 157.63C604.6 156.97 604.77 157.3 603.94 158.61L599.71 161.42C598.54 162.49 597.71 162.69 597.22 162.04C596.22 161.38 594.11 160.57 590.87 159.59C590.04 159.1 589.95 158.61 590.62 158.12C591.28 157.3 591.57 156.28 591.49 155.06L591.49 143.42C591.49 142.77 591.24 142.2 590.74 141.71C590.16 141.05 590.2 140.65 590.87 140.49C593.52 139.67 595.93 138.57 598.09 137.18C598.83 136.61 599.46 136.69 599.95 137.42L605.06 143.55C605.56 144.2 605.51 144.69 604.93 145.01ZM601.07 145.01L598.34 141.47C597.42 140.32 596.84 139.87 596.59 140.12C596.01 140.61 595.72 141.38 595.72 142.45L595.6 149.67C595.51 150.73 595.88 150.93 596.71 150.28C597.38 149.55 598.83 148.41 601.07 146.85C602.07 146.36 602.07 145.75 601.07 145.01Z" />
				<path id="&lt;Compound Path&gt;" fill-rule="evenodd" class="shp0" d="M654.61 156.42C650.55 161.16 645.48 163.2 639.42 162.54C630.87 161.4 626.27 156.59 625.6 148.1C624.61 141.32 628.09 135.61 636.06 130.95C636.67 130.49 636.92 130.5 636.81 130.99C636.58 131.32 636.22 131.64 635.73 131.97C628.15 137.63 626.6 144.19 631.08 151.65C631.41 152.46 631.91 152.54 632.57 151.89C633.96 150.8 634.73 149.28 634.9 147.32L635.07 137.44C634.95 136.46 635.26 135.73 635.98 135.24L644.61 128.79C645 128.35 645.66 128.3 646.6 128.63C649.65 130.15 651.78 130.89 652.99 130.83C654.49 130.67 654.82 131.08 653.99 132.06L652.24 133.89C651.66 134.38 650.84 134.5 649.76 134.26C647.27 133.69 645.69 133.24 645.03 132.91C643.86 132.34 643.37 132.59 643.53 133.65L643.53 158.14C643.53 158.87 644.03 159.12 645.03 158.87C647.27 158.79 650.21 157.69 653.87 155.56C655.11 154.75 655.36 155.03 654.61 156.42ZM641.54 132.71C639.72 133.41 638.8 135.95 638.8 140.3L638.8 143.97C639.08 146.59 637.94 148.95 635.4 151.08L633.49 153.03C632.71 153.52 632.68 154.15 633.4 154.91C635.39 157.14 637.94 158.4 641.04 158.67C641.87 158.83 642.26 158.45 642.21 157.52L642.45 133.28C642.51 132.35 642.2 132.16 641.54 132.71Z" />
				<g id="&lt;Group&gt;">
					<path id="&lt;Path&gt;" class="shp0" d="M317.55 143.28C317.66 141.37 317.33 140.28 316.56 140.01C315.89 139.68 315.92 139.33 316.64 138.95L318.96 137.23C319.85 136.53 320.59 136.58 321.2 137.4C321.81 137.94 322.37 138.4 322.86 138.79C323.42 139.49 323.39 140.01 322.78 140.34C322.34 140.88 322.14 142.05 322.2 143.84L322.2 156.01C322.31 158.02 323.11 158.79 324.61 158.3C325.44 158.02 325.85 158.19 325.85 158.78C325.8 159.06 325.38 159.47 324.61 160.01L322.86 161.23C322.2 162.1 321.37 162.24 320.37 161.64C318.71 160.39 317.63 159.63 317.14 159.36C316.31 158.87 316.22 158.3 316.89 157.64C317.44 157.21 317.69 156.26 317.63 154.79L317.55 143.28Z" />
					<path id="&lt;Path&gt;" class="shp0" d="M319.82 134.53L320.89 128.74L323.3 128.47C324.73 128.47 324.82 129.35 323.57 131.11L319.82 134.53Z" />
				</g>
				<g id="&lt;Group&gt;">
					<path id="&lt;Path&gt;" class="shp0" d="M173.33 143.28C173.44 141.37 173.11 140.28 172.34 140.01C171.67 139.68 171.7 139.33 172.42 138.95L174.75 137.23C175.63 136.53 176.38 136.58 176.99 137.4C177.59 137.94 178.15 138.4 178.65 138.79C179.2 139.49 179.17 140.01 178.56 140.34C178.12 140.88 177.93 142.05 177.98 143.84L177.98 156.01C178.09 158.02 178.9 158.79 180.39 158.3C181.22 158.02 181.63 158.19 181.63 158.78C181.58 159.06 181.16 159.47 180.39 160.01L178.65 161.23C177.98 162.1 177.15 162.24 176.15 161.64C174.49 160.39 173.42 159.63 172.92 159.36C172.09 158.87 172 158.3 172.67 157.64C173.22 157.21 173.47 156.26 173.42 154.79L173.33 143.28Z" />
					<path id="&lt;Path&gt;" class="shp0" d="M175.79 134.53L176.86 128.74L179.27 128.47C180.7 128.47 180.79 129.35 179.54 131.11L175.79 134.53Z" />
				</g>
				<path id="&lt;Path&gt;" class="shp0" d="M51.3 147.88C50.72 149.55 50.95 149.93 51.99 149.05C52.81 147.94 53.74 147.83 54.78 148.71L56 149.21C57.97 150.32 59.31 150.43 60.01 149.55C60.7 148.66 60.82 148.66 60.36 149.55L62.8 145.72C62.56 144.61 62.21 144.5 61.75 145.38L60.88 146.38C60.3 147.16 59.66 147.16 58.96 146.38L55.83 144.72C54.43 144.16 53.62 144.28 53.39 145.05L51.3 147.88Z" />
			</g>
			<path id="&lt;Path&gt;" class="shp0" d="M678.04 158.97C677.48 159.52 677.45 160.02 677.92 160.49L679.34 161.77C680.13 162.24 680.69 162.32 681 162.01L682.31 160.72C682.86 160.02 682.86 159.44 682.31 158.97L680.76 157.57C680.13 157.03 679.62 157.03 679.22 157.57L678.04 158.97Z" />
		</g>
		<g id="&lt;Group&gt;">
			<path id="&lt;Path&gt;" class="shp1" d="M395.75 94.41C382.35 94.83 374.3 94.96 371.6 94.8C358.74 94.32 352.39 94.3 352.52 94.72L353.08 96.25C363.91 96.5 369.66 96.54 370.34 96.38C386.13 95.95 394.44 95.83 395.24 96L395.75 94.41Z" />
			<path id="&lt;Path&gt;" class="shp0" d="M293.49 98.08C295.25 98.35 296.43 98.62 297.04 98.89C301.22 99.56 303.79 99.8 304.73 99.59C307.57 100 309.25 100.26 309.79 100.4C312.7 100.6 314.52 100.54 315.26 100.2C318.77 100.47 320.8 100.7 321.33 100.9C325.25 100.7 327.51 100.47 328.12 100.2C331.02 99.33 333.01 98.96 334.09 99.09L339.25 99.3L343.41 99.9L349.99 99.7L354.34 99.7C357.31 99.96 359.17 100 359.91 99.8L365.17 98.59C366.59 98.79 367.4 98.93 367.6 98.99C367.81 99.06 369.02 99.23 371.25 99.49L374.69 99.3L378.14 98.69L381.98 99.49L385.12 99.3L389.07 98.99L391.19 99.59L392.51 100C382.93 116.84 365.18 124.93 339.25 124.26C316.85 121.97 301.59 113.25 293.49 98.08Z" />
			<path id="&lt;Path&gt;" class="shp2" d="M348.24 1.72C325.37 -1.86 306.39 7.89 291.29 30.96C280.28 49.48 278.35 66.79 285.49 82.89L292.78 82.86L293.82 77.52L298.59 77.37L299.09 69.82L304.48 69.52C307.01 51.05 317.69 41.27 336.52 40.16C341.28 40.16 345.58 40.86 349.43 42.27L349.58 12.38L372.06 12.38L372.36 28.83L384.36 27.7L387.69 29.74L388.01 44.39L399.24 51.03L399.7 84.25L400.31 86.31C407.19 70.93 406.98 54.74 399.7 37.74C390.77 15.48 373.61 3.47 348.24 1.72Z" />
			<path id="&lt;Path&gt;" class="shp1" d="M285.95 81.98L292.83 81.98L292.83 76.74L298.1 76.74L298.1 68.99L304.28 68.99C305.83 51.88 315.52 41.98 333.33 39.3C333.76 36.79 334.59 34.66 335.8 32.92L335.8 29.09L333.93 25.88L336.57 22.39L339.13 25.98L337.28 29.13L337.28 32.85C338.7 35.34 339.37 37.48 339.31 39.3C342.55 39.53 345.79 40.25 349.03 41.46L349.03 11.49L368.01 10.13L372.42 11.72L372.42 28.12L385.02 27.04L388.14 29.08L388.14 43.65L399.67 50.29L400.13 87.96L397.93 91.51L395.8 94.95L291.62 94.7L287.52 87.51L285.55 82.68L285.95 81.98Z" />
			<path id="&lt;Path&gt;" class="shp3" d="M350.16 39.95L350.16 13.15L367.85 11.76L371.18 12.91L371.24 39.65L367.85 38.02L367.24 22.19L366.72 21.88C365.82 21.35 365.03 21.29 364.33 21.7C363.24 22.02 362.82 23.57 363.06 26.34L363.37 37.96L362.39 38.08C362.23 32.18 362.07 28.14 361.91 25.98C362.15 23.73 361.35 22.6 359.49 22.6C358.07 22.8 357.4 23.69 357.49 25.25L357.73 38.92L356.52 39.11L356.34 28.21C356.38 24.51 355.43 22.79 353.49 23.03C352.08 23.07 351.41 24.53 351.49 27.42L351.92 39.77L350.16 39.95Z" />
			<path id="&lt;Path&gt;" class="shp4" d="M353.03 39.65L352.56 27.78C352.47 25.57 352.85 24.49 353.7 24.53C354.6 24.28 355.05 25.6 355.04 28.51C355.39 34.81 355.57 38.44 355.57 39.4L353.03 39.65Z" />
			<path id="&lt;Path&gt;" class="shp4" d="M358.68 38.62L358.61 25.8C358.48 24.59 358.82 23.99 359.63 23.99C360.49 23.91 360.94 24.49 360.99 25.74C361.26 30.83 361.4 35.05 361.4 38.38L358.68 38.62Z" />
			<path id="&lt;Path&gt;" class="shp4" d="M364.39 37.74L363.99 24.41C363.9 23.29 364.25 22.7 365.04 22.66C366.09 22.5 366.6 23.13 366.56 24.53L366.69 37.42L364.39 37.74Z" />
			<path id="&lt;Path&gt;" class="shp1" d="M367.18 12.61L366.7 37.84L367.91 38.56L368.55 12.61L367.18 12.61Z" />
			<path id="&lt;Path&gt;" class="shp1" d="M349.2 14.04L368.01 12.93L372.39 14.14L372.36 11.92L367.96 10.34L349.2 11.7L349.2 14.04Z" />
			<path id="&lt;Path&gt;" class="shp1" d="M349.13 18.06L368.01 16.65L372.39 17.86L372.36 16.86L367.96 15.27L349.16 16.63L349.13 18.06Z" />
			<path id="&lt;Path&gt;" class="shp1" d="M349.16 21.79L368.01 20.63L372.39 21.63L372.36 20.8L367.96 19.5L349.19 20.61L349.16 21.79Z" />
			<path id="&lt;Path&gt;" class="shp1" d="M349.23 20.42L352.34 17.85L354.94 20.13L358.22 17.42L361.37 19.9L364.76 17L367.96 19.5L369.95 17.6L372.36 20.8L371.36 20.86L368.39 20.13L364.45 20.08L354.77 20.86L349.31 21.1L349.23 20.42Z" />
			<path id="&lt;Path&gt;" class="shp3" d="M372.74 29.25L372.74 35.7C374.17 35.55 374.73 36.69 374.42 39.1L374.2 43.63L375.78 43.63L375.85 38.12C375.81 36.66 376.39 35.93 377.6 35.93C378.65 36.13 379.13 36.86 379.03 38.12L379.03 43.4L380.43 43.4L380.51 37.67C380.34 36.11 380.84 35.33 382 35.33C382.93 35.33 383.41 36.11 383.46 37.67L383.46 43.4L387.4 43.18L387.09 29.5L384.89 28.38L372.74 29.25Z" />
			<path id="&lt;Path&gt;" class="shp1" d="M384.36 27.7L384.58 44.08L385.81 43.93L385.34 28.15L384.36 27.7Z" />
			<path id="&lt;Path&gt;" class="shp1" d="M372.64 31.6L385.12 30.91L388.03 31.55L388.02 30.83L385.09 29.9L372.66 30.66L372.64 31.6Z" />
			<path id="&lt;Path&gt;" class="shp1" d="M372.36 33.65L374.03 31.5L375.85 33.28L377.74 31.25L380.18 33.21L382.16 31.02L385.12 32.99L386.82 31.73L387.96 33.34L387.48 33.63L385.41 33.28L383.09 33.28L376.58 33.89L372.59 34.03L372.36 33.65Z" />
			<path id="&lt;Path&gt;" class="shp4" d="M373.77 43.69L373.76 38.27C373.83 37.21 373.54 36.73 372.9 36.84C372.52 36.93 372.37 37.43 372.44 38.35L372.44 43.7L373.77 43.69Z" />
			<path id="&lt;Path&gt;" class="shp4" d="M376.46 43.62L376.62 38.04C376.62 37.24 376.92 36.86 377.52 36.91C378.04 36.96 378.27 37.62 378.21 38.87L378.14 43.55L376.46 43.62Z" />
			<path id="&lt;Path&gt;" class="shp4" d="M381.1 43.39L381.24 37.82C381.22 36.79 381.5 36.34 382.07 36.47C382.67 36.51 382.92 37.46 382.84 39.33L382.84 43.32L381.1 43.39Z" />
			<path id="&lt;Path&gt;" class="shp1" d="M354.67 43.33L354.59 41.59L357.86 40.91C358.72 41.01 359.2 41.27 359.3 41.67L359.53 43.03C359.63 43.68 359.4 44.06 358.85 44.16L355.89 44.61L355.51 43.7L357.86 43.18L357.94 41.89L356.11 42.2L356.04 43.18L354.67 43.33Z" />
			<g id="&lt;Group&gt;">
				<path id="&lt;Compound Path&gt;" fill-rule="evenodd" class="shp1" d="M364.54 42.95L361.51 43.25C360.8 43.35 360.47 43.23 360.52 42.88L360.6 40.76L364.01 39.93C364.87 39.78 365.35 40.01 365.45 40.61L365.45 42.04C365.6 42.6 365.3 42.9 364.54 42.95ZM364.39 41.74L363.93 40.84L361.66 41.44L361.96 42.42L364.39 41.74Z" />
			</g>
			<path id="&lt;Path&gt;" class="shp3" d="M366.52 38.72L349.73 41.86C352.82 43.37 355.1 44.54 356.57 45.37C356.72 45.08 357.13 44.9 357.78 44.85L366.59 44.27L366.52 38.72Z" />
			<path id="&lt;Path&gt;" class="shp3" d="M367.89 44.16L368.03 39.4L371.23 40.84L371.23 43.78L367.89 44.16Z" />
			<path id="&lt;Path&gt;" class="shp3" d="M362.44 45.65L387.45 44.64L398.58 50.98L399.7 87.52L397.98 87.82L372.32 88.42L372.52 74.23L387.55 74.23L386.23 69.8C383.46 61.95 380.59 56.11 377.63 52.29L362.64 46.25L362.44 45.65Z" />
			<path id="&lt;Path&gt;" class="shp1" d="M367.25 48.26L383.71 47.46L384.11 62.75L382.99 60.84L382.49 48.66L369.63 49.07L367.25 48.26Z" />
			<path id="&lt;Path&gt;" class="shp1" d="M366.29 46.75C368.25 46.35 369.56 46.25 370.24 46.45C370.98 46.72 371.69 46.68 372.36 46.35C373.78 45.81 375.13 45.78 376.41 46.25C377.02 46.31 377.52 46.18 377.93 45.84C379.96 45.37 381.41 45.37 382.28 45.84C383.3 46.04 383.94 46.04 384.21 45.84C385.35 45.58 386.27 45.64 386.95 46.05C387.75 46.78 388.7 47.22 389.78 47.36C390.86 47.49 391.6 47.89 392.01 48.56C392.54 49.1 393.22 49.4 394.03 49.47C394.77 49.53 395.31 49.77 395.65 50.17C395.98 50.57 396.02 50.64 395.75 50.37C396.36 50.78 396.83 50.98 397.17 50.98C397.44 51.58 397.17 51.75 396.36 51.48C395.41 50.68 394.6 50.34 393.93 50.47C392.51 50.07 391.73 49.74 391.6 49.47C391.13 48.73 390.45 48.39 389.58 48.46C388.43 48.33 387.62 47.82 387.14 46.95C385.86 46.28 384.81 46.18 384 46.65C382.52 47.05 381.27 46.95 380.26 46.35C379.58 46.21 379.01 46.31 378.54 46.65C377.19 47.25 376.04 47.32 375.1 46.85C374.29 46.45 373.48 46.58 372.67 47.25C371.52 47.59 370.44 47.56 369.42 47.15C368.28 46.88 367.44 46.95 366.9 47.36C366.08 47.15 365.88 46.95 366.29 46.75Z" />
			<path id="&lt;Path&gt;" class="shp1" d="M384.81 48.06C384.68 48.93 384.55 49.6 384.41 50.07C384.26 50.82 384.33 51.45 384.61 51.98C384.64 52.03 384.64 52.1 384.61 52.19C384.95 53.19 385.12 53.86 385.12 54.2C384.78 54.94 384.68 55.54 384.81 56.01C384.81 56.41 384.85 56.82 384.92 57.22C384.92 58.29 384.92 59 384.92 59.33C384.85 60.21 384.88 60.78 385.02 61.04C385.15 61.31 385.22 61.45 385.22 61.45C385.08 62.32 385.15 62.92 385.43 63.26L385.62 64.06C386.03 63.86 386.1 63.59 385.83 63.26C385.76 61.91 385.66 61.08 385.53 60.74C385.39 60.34 385.39 59.97 385.53 59.64C385.73 58.56 385.73 57.79 385.53 57.32C385.19 56.65 385.12 56.01 385.32 55.41C385.52 54.13 385.52 53.26 385.32 52.79C384.98 51.58 384.88 50.74 385.02 50.27C385.49 48.6 385.42 47.86 384.81 48.06Z" />
			<path id="&lt;Path&gt;" class="shp1" d="M397.57 53.19C397.64 54.06 397.57 54.67 397.37 55C397.23 55.88 397.23 56.45 397.37 56.72C397.64 57.66 397.71 58.46 397.57 59.13C397.24 59.74 397.14 60.41 397.27 61.14C397.61 61.68 397.71 62.25 397.57 62.85C397.71 63.59 397.71 64.33 397.57 65.07C397.44 65.74 397.44 66.28 397.57 66.68C397.78 67.69 397.78 68.49 397.57 69.1C397.44 69.84 397.44 70.51 397.57 71.11C397.44 72.38 397.47 73.26 397.67 73.72C397.88 75 397.88 75.98 397.67 76.64C397.47 77.12 397.57 77.79 397.98 78.66C398.25 77.52 398.35 76.71 398.28 76.24C398.42 74.43 398.38 73.39 398.18 73.12C398.05 72.05 398.05 71.24 398.18 70.7C398.31 70.03 398.25 69.43 397.98 68.9C398.12 67.89 398.18 67.22 398.18 66.88C398.25 65.47 398.18 64.6 397.98 64.26C397.91 63.26 397.95 62.49 398.08 61.95C397.81 60.68 397.78 59.7 397.98 59.03C398.05 57.69 398.01 56.75 397.88 56.21C398.08 54.47 397.98 53.46 397.57 53.19Z" />
			<g id="&lt;Group&gt;">
				<path id="&lt;Compound Path&gt;" fill-rule="evenodd" class="shp1" d="M397.07 52.69L396.96 82.67L387.65 82.67L387.35 81.78L387.75 75.84L386.84 69.5L386.23 48.16L397.07 52.69ZM396.06 81.48L395.95 53.09L387.55 49.77L388.76 81.58L396.06 81.48Z" />
			</g>
			<path id="&lt;Path&gt;" class="shp1" d="M392.51 54C391.16 53.8 390.38 54.43 390.18 55.91C390.52 56.85 390.35 57.45 389.67 57.72C388.73 58.66 388.49 59.57 388.97 60.44C389.84 61.51 390.79 61.92 391.8 61.65C393.76 62.79 395.11 62.32 395.85 60.24C396.12 59.1 395.68 58.09 394.53 57.22C395.07 55.47 394.4 54.4 392.51 54Z" />
			<path id="&lt;Path&gt;" class="shp5" d="M392.61 55.51C391.67 55.1 391.3 55.51 391.5 56.72C391.97 57.72 391.94 58.26 391.4 58.33C389.98 58.46 389.51 58.96 389.98 59.84C390.39 60.64 391.09 60.88 392.1 60.54C392.98 61.68 393.79 61.58 394.53 60.24C394.87 59.1 394.47 58.39 393.32 58.12C393.93 56.51 393.69 55.64 392.61 55.51Z" />
			<path id="&lt;Path&gt;" class="shp1" d="M372.74 75.5L387.86 75.5L387.86 76.33L372.74 76.33L372.74 75.5Z" />
			<path id="&lt;Path&gt;" class="shp1" d="M372.74 81.97L399.6 81.97L399.6 82.8L372.74 82.8L372.74 81.97Z" />
			<path id="&lt;Path&gt;" class="shp1" d="M372.74 83.82L399.84 83.82L399.84 87.1L372.74 87.1L372.74 83.82Z" />
			<path id="&lt;Path&gt;" class="shp1" d="M372.74 77.31L387.72 77.31L387.72 78.15L372.74 78.15L372.74 77.31Z" />
			<g id="&lt;Group&gt;">
				<path id="&lt;Compound Path&gt;" fill-rule="evenodd" class="shp1" d="M376.31 78.86L376.31 81.78L373.68 81.78L373.78 78.86L376.31 78.86ZM375.72 79.63L374.43 79.63L374.38 81.11L375.72 81.11L375.72 79.63Z" />
			</g>
			<g id="&lt;Group&gt;">
				<path id="&lt;Compound Path&gt;" fill-rule="evenodd" class="shp1" d="M379.65 78.86L379.65 81.78L377.02 81.78L377.12 78.86L379.65 78.86ZM379.05 79.63L377.77 79.63L377.72 81.11L379.05 81.11L379.05 79.63Z" />
			</g>
			<g id="&lt;Group&gt;">
				<path id="&lt;Compound Path&gt;" fill-rule="evenodd" class="shp1" d="M384.21 78.86L384.21 81.78L381.58 81.78L381.68 78.86L384.21 78.86ZM383.61 79.63L382.33 79.63L382.27 81.11L383.61 81.11L383.61 79.63Z" />
			</g>
			<g id="&lt;Group&gt;">
				<path id="&lt;Path&gt;" class="shp3" d="M374.92 86.01L373.5 86.01L373.5 84.8L374.92 84.8L374.92 86.01Z" />
				<path id="&lt;Path&gt;" class="shp3" d="M377.55 86.01L376.13 86.01L376.13 84.8L377.55 84.8L377.55 86.01Z" />
				<path id="&lt;Path&gt;" class="shp3" d="M380.18 86.01L378.77 86.01L378.77 84.8L380.18 84.8L380.18 86.01Z" />
				<path id="&lt;Path&gt;" class="shp3" d="M382.81 86.01L381.4 86.01L381.4 84.8L382.81 84.8L382.81 86.01Z" />
				<path id="&lt;Path&gt;" class="shp3" d="M385.45 86.01L384.03 86.01L384.03 84.8L385.45 84.8L385.45 86.01Z" />
				<path id="&lt;Path&gt;" class="shp3" d="M388.08 86.01L386.67 86.01L386.67 84.8L388.08 84.8L388.08 86.01Z" />
				<path id="&lt;Path&gt;" class="shp3" d="M390.71 86.01L389.3 86.01L389.3 84.8L390.71 84.8L390.71 86.01Z" />
				<path id="&lt;Path&gt;" class="shp3" d="M393.35 86.01L391.93 86.01L391.93 84.8L393.35 84.8L393.35 86.01Z" />
				<path id="&lt;Path&gt;" class="shp3" d="M395.98 86.01L394.56 86.01L394.56 84.8L395.98 84.8L395.98 86.01Z" />
				<path id="&lt;Path&gt;" class="shp3" d="M398.61 86.01L397.19 86.01L397.19 84.8L398.61 84.8L398.61 86.01Z" />
			</g>
			<path id="&lt;Path&gt;" class="shp0" d="M356.97 45.74L376.89 52.66C380.81 57.32 383.96 64.21 386.34 73.34L372.96 73.24C373.57 63.16 368.25 54 356.97 45.74Z" />
			<path id="&lt;Path&gt;" class="shp1" d="M362.24 47.36C368.11 50.91 372.5 59.57 375.4 73.32L376.62 73.42C374.84 62.49 370.82 53.97 364.54 47.86L362.24 47.36Z" />
			<path id="&lt;Path&gt;" class="shp1" d="M365.88 48.06C371.62 52.29 375.88 60.84 378.67 73.72L379.88 73.83C378.11 63.49 374.35 55.31 368.62 49.27L365.88 48.06Z" />
			<path id="&lt;Path&gt;" class="shp1" d="M371.76 50.27C375.74 53.23 379.45 61.08 382.89 73.83L384.11 73.93C382.2 64.74 378.68 57.03 373.55 50.78L371.76 50.27Z" />
			<path id="&lt;Path&gt;" class="shp5" d="M336.32 35.91L335.13 39.63L337.53 39.63L336.32 35.91Z" />
			<path id="&lt;Path&gt;" class="shp3" d="M299.67 70.41L299.67 72.42L303.21 72.32L303.72 70.1L299.67 70.41Z" />
			<path id="&lt;Path&gt;" class="shp3" d="M303.11 73.22L299.47 73.42L299.16 82.58L300.48 82.49L300.48 74.74L301.8 74.74L301.8 82.69L302.81 82.58C302.74 77.55 302.84 74.43 303.11 73.22Z" />
			<path id="&lt;Path&gt;" class="shp3" d="M297.85 78.26L294.81 78.26L294.51 79.46L297.64 79.77L297.85 78.26Z" />
			<path id="&lt;Path&gt;" class="shp3" d="M294.41 82.38L294.51 80.47L297.95 80.87L298.05 82.58L296.93 82.38L296.33 81.28L295.52 82.29L294.41 82.38Z" />
			<path id="&lt;Path&gt;" class="shp3" d="M303.01 84L301.59 83.79L301.49 86.91L302.91 86.81L303.01 84Z" />
			<path id="&lt;Path&gt;" class="shp3" d="M300.48 84.3L299.16 84L299.16 87.11L300.38 87.02L300.48 84.3Z" />
			<path id="&lt;Path&gt;" class="shp3" d="M296.83 84.1L296.73 87.11L298.15 87.11L298.05 84.1L296.83 84.1Z" />
			<path id="&lt;Path&gt;" class="shp3" d="M294.3 83.79L294 87.22L295.62 87.11L295.42 84L294.3 83.79Z" />
			<path id="&lt;Path&gt;" class="shp3" d="M310.76 84.95C307.73 60.62 317.03 48.26 338.67 47.88C357.7 48.36 366.28 60.33 364.4 83.8L310.76 84.95Z" />
			<path id="&lt;Path&gt;" class="shp1" d="M310.18 82.58L313.28 82.58C311.89 74.84 312.68 70.13 315.66 68.46C315.76 65.78 317.3 64.39 320.28 64.3C323.3 64.25 325.15 65.4 325.83 67.74C326.65 67.79 327.17 67.98 327.41 68.31C326.64 61.91 329.02 58.18 334.55 57.13C338.35 56.46 341.5 57.61 344 60.57C345.49 62.1 346 64.32 345.52 67.24C346.53 66.52 347.22 66.16 347.6 66.16C348.85 62.87 350.99 61.58 354.02 62.29C356.04 62.72 357.17 63.96 357.41 66.02C360.54 65.45 362.24 66.88 362.53 70.32L362.53 83.15L310.25 83.8L310.18 82.58Z" />
			<path id="&lt;Path&gt;" class="shp3" d="M317.1 67.58C317.73 65.91 319.03 65.07 321 65.07C322.2 65.02 323.4 65.74 324.6 67.22L323.16 67.65C322.63 66.41 321.72 65.91 320.42 66.15C319.36 66.2 318.59 66.6 318.11 67.37C317.73 67.56 317.39 67.63 317.1 67.58Z" />
			<path id="&lt;Path&gt;" class="shp5" d="M321.36 69.39C320.54 68.77 319.91 68.41 319.48 68.31C319.1 67.74 319.53 67.45 320.78 67.45C321.93 67.64 322.56 67.95 322.66 68.38C321.79 68.72 321.36 69.05 321.36 69.39Z" />
			<path id="&lt;Path&gt;" class="shp3" d="M348.76 65.7C349.38 63.89 350.68 62.98 352.65 62.98C354.58 62.79 355.94 63.82 356.76 66.06L355.9 66.21C355.32 64.68 354.21 63.94 352.58 63.98C351.19 64.14 350.25 64.64 349.77 65.47C349.38 65.67 349.05 65.75 348.76 65.7Z" />
			<path id="&lt;Path&gt;" class="shp5" d="M353.16 68.1C351.96 67.05 351.14 66.47 350.71 66.38C350.71 65.61 351.33 65.23 352.58 65.23C353.88 65.37 354.63 65.95 354.82 66.95C353.71 67.38 353.16 67.76 353.16 68.1Z" />
			<path id="&lt;Path&gt;" class="shp3" d="M314.15 82.44L314.29 73.19C314.39 71.13 315.39 69.77 317.32 69.1C318.81 69.01 319.82 69.32 320.35 70.04C321.02 70.42 321.48 70.47 321.72 70.18C323.83 68.31 325.83 68.1 327.7 69.53C328.47 69.96 328.95 70.06 329.15 69.82C329.34 69.44 329.22 69.05 328.78 68.67C327.49 64.51 328.57 61.36 332.03 59.21C335.25 57.2 338.4 57.34 341.48 59.64C344.31 61.17 345.16 64.32 344 69.1L344.65 69.17C347.06 66.45 349.68 66.26 352.51 68.6C353.09 68.98 353.47 69.03 353.66 68.74C355.92 66.93 357.92 66.5 359.65 67.45C360.85 68.03 361.48 69.36 361.53 71.47L361.45 81.94L360.08 81.87L360.45 71.4C360.49 69.1 359.53 68.03 357.56 68.17C355.3 68.03 354.17 69.49 354.17 72.54L354.46 81.79L352.65 81.87L352.8 72.19C352.75 69.37 351.5 67.98 349.05 68.03C346.65 68.17 345.42 69.58 345.37 72.26L345.44 82.15L344.14 82.08L344.22 71.04C344.07 70.37 343.76 70.25 343.28 70.68C341.69 72.26 339.89 73.52 337.87 74.48L337.8 82.22C336.74 80.79 336.14 79.76 336 79.14L336.28 74.98C336.28 74.41 336.04 74.1 335.56 74.05C332.92 72.95 331.11 72.09 330.15 71.47C330.44 76.97 330.35 80.48 329.86 82.01L328.57 82.01L328.78 73.62C328.59 70.75 327.51 69.32 325.54 69.32C323.04 69.36 321.98 70.56 322.37 72.9C322.32 78.59 322.32 81.72 322.37 82.3L320.63 82.3L320.63 72.9C320.68 71.04 319.87 70.08 318.18 70.04C316.5 70.27 315.66 71.2 315.66 72.83L315.52 82.51L314.15 82.44Z" />
			<path id="&lt;Path&gt;" class="shp5" d="M316.45 82.44L316.53 73.62C316.67 71.99 317.29 71.28 318.4 71.47C319.51 71.23 319.91 71.95 319.62 73.62L319.41 82.44L316.45 82.44Z" />
			<path id="&lt;Path&gt;" class="shp5" d="M323.16 82.3L323.31 72.83C323.06 71.59 323.91 70.9 325.83 70.75C327.03 70.85 327.63 71.83 327.63 73.69C327.72 78.33 327.65 81.17 327.41 82.22L323.16 82.3Z" />
			<path id="&lt;Path&gt;" class="shp5" d="M330.95 82.01C331.43 77.09 331.48 74.12 331.09 73.12C333.01 74.07 334.36 74.62 335.13 74.77L335.2 78.28C334.43 78.95 333.93 80.22 333.69 82.08C332.15 81.79 331.24 81.77 330.95 82.01Z" />
			<path id="&lt;Path&gt;" class="shp5" d="M338.88 82.3C338.98 77.61 339.05 75.08 339.09 74.7C341.31 73.4 342.63 72.64 343.06 72.4L343.28 82.22L342.56 82.15L342.56 79.35C342.75 77.35 342.39 76.23 341.48 75.99C340.56 75.94 340.2 78.06 340.39 82.37L338.88 82.3Z" />
			<path id="&lt;Path&gt;" class="shp5" d="M346.31 82.08L346.52 71.61C346.43 70.18 347.32 69.41 349.19 69.32C350.83 69.27 351.62 70.25 351.57 72.26L351.5 81.94L346.31 82.08Z" />
			<path id="&lt;Path&gt;" class="shp5" d="M355.25 81.87L355.32 72.26C355.42 70.39 356.21 69.48 357.7 69.53C358.76 69.39 359.24 70.32 359.14 72.33L358.93 81.85L355.25 81.87Z" />
			<path id="&lt;Path&gt;" class="shp1" d="M343.42 65.77C343.42 69.51 340.37 72.54 336.61 72.54C332.85 72.54 329.79 69.51 329.79 65.77C329.79 62.03 332.85 58.99 336.61 58.99C340.37 58.99 343.42 62.03 343.42 65.77Z" />
			<path id="&lt;Path&gt;" class="shp5" d="M342.34 65.77C342.34 68.92 339.77 71.47 336.61 71.47C333.44 71.47 330.88 68.92 330.88 65.77C330.88 62.62 333.44 60.07 336.61 60.07C339.77 60.07 342.34 62.62 342.34 65.77Z" />
			<path id="&lt;Path&gt;" class="shp3" d="M310.57 85.37L364.94 85.1L364.94 94.31L310.47 93.61L310.47 86.67L310.57 85.37Z" />
			<path id="&lt;Path&gt;" class="shp1" d="M312.08 87.58C313.1 87.91 313.84 88.18 314.31 88.38C315.32 88.05 316.16 87.91 316.83 87.98C316.83 87.18 317.74 86.84 319.56 86.98C321.85 85.64 322.63 85.74 321.89 87.28C322.69 87.48 323.27 87.51 323.6 87.38C323.34 85.7 324.58 85.54 327.34 86.87C330.31 85.8 331.22 86.04 330.07 87.58L331.59 87.78C330.31 86.17 330.81 85.91 333.1 86.98L333.61 86.87L335.53 90.8C334.92 91.06 334.25 91.06 333.51 90.8C332.3 91.67 331.18 92.13 330.17 92.2C330.98 91.6 331.45 90.9 331.59 90.09L329.57 89.89C330.78 91.56 330.07 91.77 327.44 90.49C327.04 89.89 326.67 89.82 326.33 90.29C324.58 91.5 323.8 91.46 324.01 90.19L322.09 90.09L322.59 90.89C321.31 91.63 320.1 91.6 318.95 90.8C318.01 91.53 317.24 91.7 316.63 91.3L316.83 90.8C315.35 90.26 314.47 89.93 314.2 89.79C313.33 90.06 312.69 90.36 312.28 90.69L312.69 89.58L312.08 87.58Z" />
			<path id="&lt;Path&gt;" class="shp3" d="M315.92 88.89C315.11 89.15 315.08 89.35 315.82 89.49L316.73 89.58C317.14 89.79 317.4 89.69 317.54 89.28L317.74 88.78C317.88 88.25 317.67 88.11 317.14 88.38L315.92 88.89Z" />
			<path id="&lt;Path&gt;" class="shp3" d="M321.58 88.38C320.84 89.18 320.84 89.52 321.58 89.39C322.93 89.45 323.91 89.22 324.51 88.68C325.52 88.08 325.36 87.85 324.01 87.98C322.73 88.18 321.92 88.32 321.58 88.38Z" />
			<path id="&lt;Path&gt;" class="shp3" d="M328.76 89.19C328.96 89.59 329.46 89.72 330.27 89.58C331.75 89.72 332.26 89.45 331.79 88.78C331.92 88.25 331.28 87.98 329.87 87.98C328.59 88.32 328.22 88.72 328.76 89.19Z" />
			<path id="&lt;Path&gt;" class="shp1" d="M363.11 88.28C363.72 86.88 363.49 86.51 362.41 87.18C362.01 88.18 361.54 88.41 360.99 87.88C360.25 87.41 359.71 87.24 359.38 87.38C360.12 86.04 359.41 86.17 357.26 87.78C355.23 87.11 354.26 87.11 354.33 87.78L355.03 88.38C353.14 88.11 351.93 88.11 351.39 88.38C351.26 87.51 351.29 86.91 351.49 86.57C350.42 86.57 349.78 87.04 349.57 87.98C347.69 87.18 346.74 87.08 346.74 87.68L346.95 88.38L346.14 88.48L347.85 90.39L349.98 91.79C351.12 91.26 351.73 90.79 351.8 90.39C353.75 90.66 355 90.66 355.54 90.39C354.66 91.8 355.2 91.87 357.15 90.59C357.82 90.86 358.3 91.23 358.57 91.7C359.18 91.56 359.48 91.16 359.48 90.49C360.76 90.29 361.5 90.09 361.7 89.89C362.58 90.42 363.18 90.52 363.52 90.19C363.31 89.52 362.98 89.02 362.51 88.68L363.11 88.28Z" />
			<path id="&lt;Path&gt;" class="shp3" d="M359.48 88.89L359.27 89.69L360.29 89.19L359.48 88.89Z" />
			<path id="&lt;Path&gt;" class="shp3" d="M355.74 88.98L351.29 88.78C350.96 89.52 351.26 89.86 352.2 89.79L355.33 90.09C356.08 89.75 356.21 89.38 355.74 88.98Z" />
			<path id="&lt;Path&gt;" class="shp3" d="M348.06 88.89C347.12 89.02 346.88 89.22 347.35 89.49C348.02 89.82 348.26 89.62 348.06 88.89Z" />
			<path id="&lt;Path&gt;" class="shp3" d="M349.28 90.59C349.14 91.13 349.47 91.43 350.28 91.5C350.48 90.76 350.08 90.42 349.07 90.49" />
			<path id="&lt;Path&gt;" class="shp4" d="M353.48 97.38L353.38 98.49L354.09 98.49C356.88 99.56 359.37 99.66 361.55 98.79C364.82 97.72 367.03 97.58 368.19 98.39C370.71 99.13 372.85 99.16 374.62 98.49C376.46 97.68 378.57 97.65 380.96 98.39C383.21 98.73 384.94 98.69 386.17 98.29C388.89 97.75 390.9 97.99 392.19 98.99L393.52 97.28C387.94 97.48 384.7 97.52 383.82 97.38C381.91 97.52 380.65 97.48 380.04 97.28L369.82 97.38C359.27 97.58 353.82 97.58 353.48 97.38Z" />
			<path id="&lt;Path&gt;" class="shp5" d="M336.02 97.08L293.35 96.58C294.88 97.99 296.77 98.72 299.05 98.79C303.86 98.72 306.65 98.86 307.41 99.19C309.68 100 311.65 100.13 313.3 99.59C316.26 98.99 318.49 99.03 320.01 99.7C322.35 100.64 324.62 100.5 326.83 99.3C330.34 97.95 333.19 97.55 335.39 98.08L336.02 97.08Z" />
			<path id="&lt;Path&gt;" class="shp1" d="M310.47 84.6L364.83 84.06L364.94 85.1L310.26 85.67L310.47 84.6Z" />
			<path id="&lt;Path&gt;" class="shp3" d="M293.01 83.7L286.57 83.34C286.88 84.32 287.4 85.84 288.14 87.61L292.78 87.41L293.01 83.7Z" />
			<g id="&lt;Group&gt;">
				<path id="&lt;Path&gt;" class="shp5" d="M373.07 89.33C371.38 89.4 370.71 88.96 371.05 88.02C371.93 75.74 371.79 68.63 370.64 66.68C365.24 48.9 353.63 40.34 335.81 41.01C311.58 42.89 301.32 58.09 305.04 86.61C305.3 87.95 304.43 88.62 302.4 88.62L288.71 88.81C289.42 90.31 290.29 91.97 291.37 93.66L309.39 93.66L309.08 76.64C310.37 57.32 319.04 47.19 335.1 46.25C353.94 46.05 364.13 54.84 365.68 72.62C365.95 74.36 365.92 81.51 365.58 94.06L396.36 94.06L399.6 89.33L373.07 89.33Z" />
			</g>
			<g id="&lt;Group&gt;">
				<path id="&lt;Path&gt;" class="shp1" d="M289.44 90.84C291.81 91.58 293.73 91.41 295.21 90.34C298.12 89.13 300.41 89.09 302.1 90.24C303.72 91.44 305.07 91.68 306.15 90.94C306.55 89.87 306.55 88.93 306.15 88.12C305.54 85.57 305.74 83.73 306.76 82.58C307.16 81.18 306.99 79.93 306.25 78.86C305.17 76.58 305.31 74.26 306.65 71.91C307.47 70.57 307.67 69.23 307.26 67.89C306.52 64.87 307.4 62.55 309.9 60.94C310.98 60.21 311.51 59 311.51 57.32C311.38 54.7 312.8 53.09 315.77 52.49C317.59 52.29 318.91 51.38 319.72 49.77C320.66 47.02 322.75 45.61 325.99 45.54C327.68 45.68 329.1 45.34 330.24 44.54C333.08 42.26 335.64 41.62 337.94 42.62C339.96 43.97 341.79 44.3 343.41 43.63C347.19 42.89 349.92 43.8 351.61 46.35C351.81 47.42 353.13 48.09 355.56 48.36C357.78 48.83 358.9 50.04 358.9 51.98C358.9 53.13 359.78 53.93 361.53 54.4C363.69 55.47 364.7 57.22 364.57 59.64C364.43 60.98 365.01 61.88 366.29 62.36C368.25 63.29 368.85 65.2 368.11 68.09C367.84 69.97 368.14 71.68 369.02 73.22C370.17 74.63 370.17 76.45 369.02 78.66C368.08 80 367.94 81.51 368.62 83.19C369.36 84.8 369.39 86.41 368.72 88.02C367.77 90.71 368.62 91.85 371.25 91.44L372.77 90.84C374.73 89.63 376.95 89.73 379.45 91.14C381.2 92.42 382.92 92.52 384.61 91.44C386.84 90.17 389.14 89.87 391.5 90.54C394.6 91.41 396.8 91.44 398.08 90.64C397.54 92.32 396.22 92.95 394.13 92.55L391.3 92.05C388.93 91.18 387.08 91.34 385.73 92.55C383.23 93.96 380.94 93.92 378.85 92.45C376.75 91.38 374.49 91.41 372.06 92.55C370.1 93.56 368.51 93.36 367.3 91.95C366.9 90.74 366.96 89.26 367.5 87.52C367.97 85.91 367.91 84.36 367.3 82.89C366.83 80.54 367 78.83 367.81 77.76C368.68 76.42 368.51 74.8 367.3 72.92C366.43 70.44 366.26 68.56 366.8 67.29C367.33 65.81 366.79 64.53 365.17 63.46C363.42 61.58 362.75 60.04 363.15 58.83C363.15 57.55 362.31 56.38 360.62 55.31C358.8 54.9 357.72 53.73 357.38 51.78C357.38 50.37 356.44 49.63 354.54 49.57C352.11 49.23 350.73 48.39 350.4 47.05C349.31 45.38 347.56 44.64 345.13 44.84C341.55 45.64 338.92 45.41 337.23 44.13C335.34 43.33 333.38 43.7 331.36 45.24C329.34 46.72 327.65 47.35 326.3 47.15C323.66 46.75 322.08 47.56 321.54 49.57C320.8 51.72 319.04 53.16 316.27 53.9C314.05 54.1 312.87 55.44 312.73 57.92C312.53 60 311.62 61.51 309.99 62.45C308.44 64.4 307.97 66.31 308.58 68.19C308.92 70.2 308.58 71.88 307.57 73.22C306.76 74.9 306.62 76.38 307.16 77.65C308.51 79.53 308.58 81.65 307.36 84C306.62 85.81 306.62 87.32 307.36 88.52C307.77 90.4 307.4 91.61 306.25 92.15C304.77 92.62 303.28 92.35 301.8 91.34C299.7 90.2 297.91 90.3 296.43 91.64C293.19 92.52 291 92.62 289.85 91.95L289.44 90.84Z" />
				<g id="&lt;Group&gt;">
					<path id="&lt;Path&gt;" class="shp1" d="M290.29 89.73C292.12 89 293.67 88.94 294.95 89.55C293.91 90.46 292.36 90.52 290.29 89.73Z" />
					<path id="&lt;Path&gt;" class="shp1" d="M296.59 92.73C296.96 91.52 297.99 91 299.7 91.18C302.2 91.67 302.93 92.12 301.89 92.55C299.27 92.18 297.51 92.24 296.59 92.73Z" />
					<path id="&lt;Path&gt;" class="shp1" d="M307.2 91.91C307.86 91.49 308.23 90.88 308.29 90.09C308.9 90.09 309.09 90.58 308.84 91.55L307.2 91.91Z" />
					<path id="&lt;Path&gt;" class="shp1" d="M305.37 88.64C305.12 89.43 304.76 89.73 304.27 89.55C304.7 89.97 305.06 90.15 305.37 90.09C305.61 89.43 305.61 88.94 305.37 88.64Z" />
					<path id="&lt;Path&gt;" class="shp1" d="M305.55 78.65C305.18 79.37 305.06 80.01 305.19 80.55C305.31 81.64 305.46 82.31 305.64 82.55C306.49 81.46 306.46 80.16 305.55 78.65Z" />
					<path id="&lt;Path&gt;" class="shp1" d="M308.33 84.1C308.66 85.39 308.77 86.51 308.66 87.46C307.94 87.11 307.63 86.64 307.74 86.04L308.33 84.1Z" />
					<path id="&lt;Path&gt;" class="shp1" d="M308.57 73.46C307.71 74.68 307.35 75.71 307.47 76.55C307.84 77.52 308.11 78.16 308.29 78.46C308.78 77.49 308.93 76.55 308.75 75.65C308.75 74.55 308.69 73.83 308.57 73.46Z" />
					<path id="&lt;Path&gt;" class="shp1" d="M310.76 62.65C309.85 63.8 309.36 64.74 309.3 65.47C309.18 66.56 309.21 67.37 309.39 67.92C310.18 67.01 310.67 66.1 310.85 65.19C311.16 63.8 311.13 62.95 310.76 62.65Z" />
					<path id="&lt;Path&gt;" class="shp1" d="M306.75 68.1C306.24 69.14 306.02 70.35 306.09 71.74C306.67 71.97 306.89 70.76 306.75 68.1Z" />
					<path id="&lt;Path&gt;" class="shp1" d="M309.21 60.47C309.63 58.29 310.09 56.99 310.58 56.56C310.94 57.17 310.94 57.89 310.58 58.74C310.03 59.77 309.57 60.35 309.21 60.47Z" />
					<path id="&lt;Path&gt;" class="shp1" d="M314.51 55.47C313.59 56.86 313.2 58.17 313.32 59.38C314.17 58.65 314.9 57.77 315.51 56.74C317.28 54.14 316.95 53.71 314.51 55.47Z" />
					<path id="&lt;Path&gt;" class="shp1" d="M317.16 48.75C316.43 50.08 315.67 50.87 314.87 51.11C316.88 51.29 318.04 51.11 318.35 50.57C319.38 49.17 319.93 48.02 319.99 47.11C318.41 47.72 317.46 48.26 317.16 48.75Z" />
					<path id="&lt;Path&gt;" class="shp1" d="M328.4 42.48C326.57 43.32 325.51 44.02 325.2 44.57C326.72 44.87 327.94 44.81 328.86 44.39C330.08 43.48 330.78 42.75 330.96 42.2C329.92 42.08 329.07 42.17 328.4 42.48Z" />
					<path id="&lt;Path&gt;" class="shp1" d="M324.2 47.66C322.98 48.51 322.37 49.2 322.37 49.75C323.4 49.2 324.26 48.78 324.93 48.48C326.27 47.63 326.03 47.35 324.2 47.66Z" />
					<path id="&lt;Path&gt;" class="shp1" d="M335.35 44.3C333.7 44.72 332.94 45.11 333.06 45.47C334.28 45.78 335.08 45.84 335.44 45.66C337.09 45.48 337.63 45.23 337.08 44.93C336.66 44.45 336.08 44.23 335.35 44.3Z" />
					<path id="&lt;Path&gt;" class="shp1" d="M339.64 42.48C340.37 42.05 341.11 41.87 341.84 41.93C343.12 41.99 343.85 42.2 344.03 42.57C343.3 42.81 342.51 42.96 341.65 43.02C340.8 42.84 340.13 42.66 339.64 42.48Z" />
					<path id="&lt;Path&gt;" class="shp1" d="M344.4 45.93C346.04 45.57 347.17 45.51 347.78 45.75C348.76 46.41 349.33 47.05 349.51 47.66C348.54 47.41 347.63 47.14 346.77 46.84C345.55 46.41 344.76 46.11 344.4 45.93Z" />
					<path id="&lt;Path&gt;" class="shp1" d="M351.52 45.11C352.26 46.32 352.87 46.99 353.35 47.11C354.09 47.29 354.79 47.35 355.46 47.29C353.63 45.66 352.32 44.93 351.52 45.11Z" />
					<path id="&lt;Path&gt;" class="shp1" d="M353.17 49.93C354.39 50.11 355.33 50.5 356 51.11C356.55 51.78 356.86 52.44 356.92 53.11C354.73 51.84 353.48 50.78 353.17 49.93Z" />
					<path id="&lt;Path&gt;" class="shp1" d="M359.57 50.47C360.18 52.77 361.15 54.11 362.5 54.47C362.07 52.41 361.09 51.08 359.57 50.47Z" />
					<path id="&lt;Path&gt;" class="shp1" d="M359.57 56.11C361.34 56.17 362.31 57.38 362.5 59.74C361.03 58.53 360.06 57.32 359.57 56.11Z" />
					<path id="&lt;Path&gt;" class="shp1" d="M365.42 57.29C364.44 59.83 365.27 61.56 367.89 62.47C367.03 59.62 366.21 57.89 365.42 57.29Z" />
					<path id="&lt;Path&gt;" class="shp1" d="M369.44 66.38C370.72 67.95 370.9 70.1 369.99 72.83C368.71 70.83 368.53 68.68 369.44 66.38Z" />
					<path id="&lt;Path&gt;" class="shp1" d="M364.69 63.83C365.97 64.68 366.33 65.92 365.78 67.56C365.05 66.83 364.69 65.59 364.69 63.83Z" />
					<path id="&lt;Path&gt;" class="shp1" d="M366.33 73.19C367.8 74.58 367.86 76.34 366.52 78.46C366.27 76.52 366.21 74.77 366.33 73.19Z" />
					<path id="&lt;Path&gt;" class="shp1" d="M370.72 77.1C369.01 78.61 368.86 80.76 370.27 83.55C370.94 80.28 371.09 78.13 370.72 77.1Z" />
					<path id="&lt;Path&gt;" class="shp1" d="M366.61 83.37C367.34 84.7 367.37 85.97 366.7 87.18C366.39 85.97 366.36 84.7 366.61 83.37Z" />
					<path id="&lt;Path&gt;" class="shp1" d="M370.18 86.55C369.14 88.07 369.01 89.34 369.81 90.37C370.6 89.64 370.72 88.37 370.18 86.55Z" />
					<path id="&lt;Path&gt;" class="shp1" d="M373.28 93.09C375.6 92.3 377.49 92.45 378.95 93.54C376.81 93.97 374.93 93.82 373.28 93.09Z" />
					<path id="&lt;Path&gt;" class="shp1" d="M379.68 90.18C381.63 89.58 383.55 89.46 385.44 89.82C384.4 90.85 382.48 90.97 379.68 90.18Z" />
					<path id="&lt;Path&gt;" class="shp1" d="M393.3 90C394.52 89.82 395.46 89.85 396.13 90.09C395.64 90.64 394.7 90.61 393.3 90Z" />
					<path id="&lt;Path&gt;" class="shp1" d="M386.63 93.18C388.15 92.21 389.98 92.09 392.11 92.82C390.4 93.67 388.57 93.79 386.63 93.18Z" />
				</g>
			</g>
			<path id="&lt;Path&gt;" class="shp1" d="M292.88 96.45C295.61 98.13 298.82 98.8 302.51 98.48C305.48 98.4 307.68 98.72 309.13 99.44C311.29 100.08 313.02 100.04 314.3 99.32C317.35 98.84 319.48 99.04 320.68 99.92C322.77 100.64 325.25 100.32 328.14 98.96C331.67 97.92 334.36 97.76 336.21 98.48C340.22 99.12 342.95 99.24 344.39 98.84C350.49 98.12 354.2 98.12 355.52 98.84C358.77 99.48 361.32 99.36 363.17 98.48C364.85 97.53 367.09 97.65 369.91 98.84C371.99 99.08 373.64 98.92 374.84 98.36C377.33 97.65 379.25 97.61 380.61 98.25C383.1 98.72 384.99 98.69 386.27 98.13C389.08 97.65 391.12 97.92 392.41 98.96L391.45 100.28C389.52 99.16 387.56 99 385.55 99.8C383.22 100.36 381.42 100.24 380.13 99.44C378.29 98.96 376.44 99.08 374.6 99.8C372.11 100.6 369.78 100.56 367.62 99.68C365.61 98.96 364.09 99.04 363.05 99.92C360.08 101.04 356.91 101.04 353.54 99.92C348.96 99.44 345.68 99.52 343.67 100.16L335.37 99.56C332.08 99.4 329.55 99.72 327.78 100.52C324.49 101.96 321.44 102.03 318.64 100.76C316.79 100.44 315.43 100.52 314.54 100.99C312.14 101.63 309.65 101.44 307.08 100.4C306.28 99.92 304.71 99.8 302.39 100.04C297.98 100.04 295.13 99.4 293.85 98.13L292.88 96.45Z" />
			<g id="&lt;Group&gt;">
				<path id="&lt;Path&gt;" class="shp1" d="M335.41 78.26C331.49 81.81 332.24 87.32 337.64 94.77L329.43 107.55L323.87 107.24L323.76 104.93C323.56 104.13 322.99 103.92 322.05 104.33C320.36 103.79 319.75 104.23 320.22 105.63L324.37 115.1C324.85 116.24 325.66 116.7 326.8 116.5C328.22 116.44 329.2 116.51 329.74 116.71C331.9 117.04 333.62 116.94 334.9 116.41C336.73 116.07 338.11 116.07 339.05 116.41C340.81 117.08 342.39 116.91 343.81 115.9C344.55 115.5 345.4 115.3 346.34 115.3C348.03 115.43 349.35 114.62 350.29 112.88L356.77 102.21C357.04 101.34 356.74 101.14 355.86 101.61L353.13 103.62C353.53 101.74 353.77 100.6 353.83 100.2C354.1 96.71 352.69 93.76 349.58 91.34C345.8 88.59 343.41 86.92 342.39 86.31L342.52 80.17C342.83 77.48 342.48 76.08 341.48 75.99C340.74 75.55 340.37 77.55 340.37 81.98L340.47 84.6C339.12 84.87 337.43 82.75 335.41 78.26Z" />
				<path id="&lt;Path&gt;" class="shp5" d="M336.11 83.29C337.06 85.64 338.21 87.35 339.56 88.42C344.42 92.38 345.77 97.35 343.61 103.32C345.77 101.78 348.54 101.98 351.91 103.93C354 98.22 352.25 93.96 346.65 91.14C340.1 86.98 336.59 84.36 336.11 83.29Z" />
				<path id="&lt;Path&gt;" class="shp5" d="M334.8 84.3C334.46 86.65 335.44 89.16 337.74 91.84C340.57 95.07 342.43 97.28 343.31 98.49C343.17 95.47 341.62 92.42 338.65 89.33C336.35 87.11 335.07 85.44 334.8 84.3Z" />
				<path id="&lt;Path&gt;" class="shp6" d="M353.53 105.03C345.84 110.53 336.08 112.48 324.27 110.87C324.81 113.15 325.29 114.63 325.69 115.3C328.32 115.23 330.21 115.33 331.36 115.6C332.44 115.8 333.55 115.7 334.7 115.3C336.25 114.69 337.67 114.66 338.95 115.2C340.77 115.8 342.16 115.7 343.1 114.9C344.05 114.42 344.89 114.16 345.63 114.09C347.32 114.16 348.33 113.75 348.67 112.88C351.1 108.39 352.72 105.77 353.53 105.03Z" />
				<g id="&lt;Group&gt;">
					<path id="&lt;Path&gt;" class="shp4" d="M329.11 109.94L330.53 109.94L336.82 99.8L335.81 99.8L329.11 109.94Z" />
					<path id="&lt;Path&gt;" class="shp4" d="M331.97 109.96L333.68 110.06L339.15 100L338.34 99.9L331.97 109.96Z" />
					<path id="&lt;Path&gt;" class="shp4" d="M334.8 109.86L335.91 109.86L341.18 100.5L340.37 100.3L334.8 109.86Z" />
					<path id="&lt;Path&gt;" class="shp4" d="M337.03 109.56L337.94 109.66C340.51 106.98 341.99 104.22 342.39 101.41C339.9 105.16 338.11 107.88 337.03 109.56Z" />
					<path id="&lt;Path&gt;" class="shp4" d="M339.76 109.26L342.29 108.86C342.29 107.38 342.33 106.44 342.39 106.04C340.84 107.51 339.96 108.59 339.76 109.26Z" />
					<path id="&lt;Path&gt;" class="shp4" d="M343.1 108.56C343.37 107.08 343.44 106.14 343.31 105.74L343.61 105.33C343.68 107.28 343.95 108.25 344.42 108.25L343.1 108.56Z" />
					<path id="&lt;Path&gt;" class="shp4" d="M344.62 104.83C345.16 104.63 345.5 104.39 345.63 104.13C345.63 106 345.77 107.08 346.04 107.34L344.93 108.25C345.06 106.31 344.96 105.17 344.62 104.83Z" />
					<path id="&lt;Path&gt;" class="shp4" d="M346.85 104.03C347.05 105.64 347.08 106.64 346.95 107.04L348.16 106.44C347.69 105.23 347.62 104.43 347.96 104.03C347.62 103.82 347.25 103.82 346.85 104.03Z" />
					<path id="&lt;Path&gt;" class="shp4" d="M348.87 104.22L348.87 106.04L349.48 105.63L349.28 104.13L348.87 104.22Z" />
					<path id="&lt;Path&gt;" class="shp4" d="M350.2 104.53L350.4 105.33L351 104.83L350.2 104.53Z" />
				</g>
			</g>
			<path id="&lt;Path&gt;" class="shp1" d="M290.96 94.57C319.78 94.48 335.45 94.53 337.98 94.73L337.48 95.97C330.29 95.43 325.94 95.27 324.44 95.47C315.61 95.6 310.64 95.64 309.55 95.57L292.3 95.67L290.96 94.57Z" />
			<g id="&lt;Group&gt;">
				<path id="&lt;Path&gt;" class="shp5" d="M337.88 96.91C337.12 96.77 336.77 97.05 336.84 97.73C336.84 98.15 337.18 97.87 337.88 96.91Z" />
				<path id="&lt;Path&gt;" class="shp5" d="M339.74 96.91L338.91 97.94L339.54 98.25L340.26 97.11L339.74 96.91Z" />
				<path id="&lt;Path&gt;" class="shp5" d="M341.29 98.04L340.99 98.45L341.82 98.76L342.02 98.45L341.29 98.04Z" />
			</g>
			<path id="&lt;Path&gt;" class="shp1" d="M400.07 84.82C398.97 88.84 396.02 93.98 391.23 100.22L392.4 100.12C394.18 98.19 395.12 97.18 395.21 97.08C395.36 96.94 397.84 93.27 397.93 93.07C398 92.94 398.37 92.37 399.05 91.34L399.97 89.41C400.27 87.8 400.41 86.94 400.41 86.84C400.41 86.75 400.3 86.07 400.07 84.82Z" />
			<path id="&lt;Path&gt;" class="shp7" d="M405.04 62.79C405.04 96.79 377.54 124.34 343.61 124.34C309.68 124.34 282.17 96.79 282.17 62.79C282.17 28.8 309.68 1.24 343.61 1.24C377.54 1.24 405.04 28.8 405.04 62.79Z" />
		</g>
	</g>
</svg>