<svg width="300" height="100" viewBox="0 0 300 100" fill="none" xmlns="http://www.w3.org/2000/svg">
<path d="M109.014 82.4317L111.452 79.3205C112.712 80.7844 114.274 81.9587 116.03 82.7629C117.786 83.5672 119.695 83.9825 121.627 83.9803C127.422 83.9803 129.279 80.8621 129.279 78.3325C129.279 69.9238 110.037 74.6257 110.037 63.0428C110.037 57.6822 114.809 53.9824 121.248 53.9824C126.153 53.9824 130.014 55.6852 132.74 58.5581L130.295 61.5572C129.099 60.2729 127.641 59.2604 126.02 58.5883C124.398 57.9161 122.652 57.6 120.898 57.6612C117.051 57.6612 114.227 59.7634 114.227 62.8255C114.227 70.127 133.462 65.9437 133.462 78.0662C133.462 82.74 130.253 87.6101 121.487 87.6101C115.881 87.596 111.697 85.4518 109.014 82.4317Z" fill="#266B71"/>
<path d="M163.17 87.0152L160.297 79.7768H144.124L141.251 87.0362H136.641L149.73 54.5508H154.74L167.795 87.0362L163.17 87.0152ZM152.211 58.671L145.344 76.1891H159.127L152.211 58.671Z" fill="#266B71"/>
<path d="M172.471 87.0152V54.5508H176.514V83.4345H191.607V87.0362L172.471 87.0152Z" fill="#266B71"/>
<path d="M221.168 87.0152L218.295 79.7768H202.13L199.257 87.0362H194.625L207.729 54.5508H212.746L225.793 87.0362L221.168 87.0152ZM210.216 58.671L203.349 76.1891H217.132L210.216 58.671Z" fill="#266B71"/>
<path d="M258.761 87.0152V59.6871L247.76 87.0152H246.099L235.049 59.6871V87.0152H231.006V54.5508H236.801L246.933 79.5665L257.01 54.5508H262.805V87.0362L258.761 87.0152Z" fill="#266B71"/>
<path d="M294.556 87.0152L291.69 79.7768H275.517L272.644 87.0362H268.02L281.116 54.5508H286.133L299.209 87.0152H294.556ZM283.604 58.671L276.737 76.1891H290.52L283.604 58.671Z" fill="#266B71"/>
<path d="M287.247 45.0582C284.122 45.0545 281.127 43.8115 278.917 41.602C276.708 39.3925 275.465 36.3968 275.461 33.272V21.7031H279.483V33.272C279.452 34.3108 279.63 35.3452 280.005 36.314C280.381 37.2829 280.948 38.1664 281.672 38.9121C282.395 39.6579 283.262 40.2508 284.219 40.6557C285.176 41.0606 286.204 41.2693 287.244 41.2693C288.283 41.2693 289.311 41.0606 290.269 40.6557C291.226 40.2508 292.092 39.6579 292.815 38.9121C293.539 38.1664 294.106 37.2829 294.482 36.314C294.858 35.3452 295.035 34.3108 295.004 33.272V21.7031H299.033V33.272C299.03 36.3968 297.787 39.3925 295.577 41.602C293.368 43.8115 290.372 45.0545 287.247 45.0582Z" fill="#266B71"/>
<path d="M267.674 45.1812C264.552 45.1738 261.56 43.9292 259.354 41.7201C257.147 39.511 255.906 36.5174 255.902 33.3951V21.8262H259.924V33.3951C259.893 34.4338 260.071 35.4683 260.447 36.4371C260.823 37.4059 261.389 38.2894 262.113 39.0352C262.837 39.781 263.703 40.3739 264.66 40.7788C265.617 41.1837 266.646 41.3923 267.685 41.3923C268.724 41.3923 269.753 41.1837 270.71 40.7788C271.667 40.3739 272.533 39.781 273.257 39.0352C273.981 38.2894 274.547 37.4059 274.923 36.4371C275.299 35.4683 275.477 34.4338 275.445 33.3951V21.8262H279.468V33.3951C279.464 36.521 278.22 39.5178 276.009 41.7275C273.798 43.9372 270.8 45.1794 267.674 45.1812Z" fill="#266B71"/>
<path d="M259.924 45.1758H221.09C217.518 45.1703 214.094 43.7488 211.568 41.223C209.042 38.6972 207.621 35.273 207.615 31.701V12.7324H211.616V31.701C211.618 34.2074 212.615 36.6107 214.387 38.383C216.159 40.1553 218.563 41.1518 221.069 41.1537H255.902V21.8208H259.924V45.1758Z" fill="#266B71"/>
<path d="M211.615 45.0704H193.088C189.516 45.0648 186.092 43.6434 183.566 41.1175C181.04 38.5917 179.619 35.1675 179.613 31.5955H183.642C183.644 34.1007 184.64 36.5029 186.411 38.2751C188.181 40.0472 190.583 41.0445 193.088 41.0482H207.614V12.627H211.615V45.0704Z" fill="#266B71"/>
<path d="M200.311 14.5195H196.289V37.6223H200.311V14.5195Z" fill="#266B71"/>
<path d="M164.389 45.0707C162.27 45.072 160.198 44.4448 158.435 43.2684C156.672 42.092 155.298 40.4192 154.486 38.4616C153.674 36.5039 153.46 34.3495 153.873 32.2707C154.286 30.1919 155.305 28.2822 156.804 26.7831C158.302 25.284 160.211 24.2629 162.289 23.849C164.368 23.435 166.522 23.6468 168.48 24.4575C170.439 25.2682 172.112 26.6414 173.29 28.4035C174.468 30.1656 175.096 32.2373 175.096 34.3566C175.092 37.1958 173.963 39.9177 171.956 41.926C169.949 43.9343 167.228 45.0651 164.389 45.0707ZM164.389 27.6717C163.065 27.6703 161.77 28.0618 160.669 28.7966C159.567 29.5314 158.708 30.5764 158.201 31.7995C157.693 33.0226 157.56 34.3687 157.818 35.6674C158.076 36.9662 158.714 38.1592 159.65 39.0955C160.586 40.0318 161.779 40.6693 163.078 40.9273C164.377 41.1853 165.723 41.0521 166.946 40.5448C168.169 40.0374 169.214 39.1786 169.949 38.0771C170.684 36.9755 171.075 35.6807 171.074 34.3566C171.072 32.5842 170.367 30.885 169.114 29.6317C167.861 28.3785 166.161 27.6736 164.389 27.6717Z" fill="#266B71"/>
<path d="M150.657 45.0678H135.515C133.457 45.0641 131.486 44.2447 130.031 42.7893C128.577 41.3338 127.76 39.3612 127.758 37.3038V20.0801H131.78V37.3038C131.78 38.295 132.173 39.2457 132.873 39.9472C133.574 40.6488 134.524 41.0438 135.515 41.0457H150.657C151.456 41.0438 152.221 40.7258 152.786 40.1611C153.351 39.5964 153.669 38.8311 153.67 38.0326V34.1786H157.693V38.0326C157.691 39.8979 156.949 41.6862 155.63 43.0052C154.311 44.3242 152.523 45.066 150.657 45.0678Z" fill="#266B71"/>
<path d="M121.071 42.3109C118.951 42.3123 116.879 41.6851 115.116 40.5087C113.354 39.3322 111.979 37.6594 111.167 35.7018C110.355 33.7442 110.142 31.5897 110.555 29.5109C110.967 27.4322 111.987 25.5224 113.485 24.0234C114.983 22.5243 116.892 21.5032 118.971 21.0892C121.049 20.6752 123.204 20.887 125.162 21.6977C127.12 22.5084 128.794 23.8817 129.972 25.6437C131.149 27.4058 131.778 29.4775 131.778 31.5969C131.774 34.436 130.645 37.158 128.638 39.1663C126.631 41.1745 123.91 42.3053 121.071 42.3109ZM121.071 24.912C119.747 24.9106 118.452 25.3021 117.35 26.0368C116.249 26.7716 115.39 27.8167 114.882 29.0397C114.375 30.2628 114.242 31.6089 114.5 32.9077C114.758 34.2064 115.395 35.3994 116.332 36.3357C117.268 37.272 118.461 37.9095 119.76 38.1675C121.059 38.4255 122.405 38.2924 123.628 37.785C124.851 37.2777 125.896 36.4189 126.631 35.3173C127.365 34.2158 127.757 32.921 127.756 31.5969C127.754 29.8245 127.049 28.1252 125.796 26.872C124.542 25.6187 122.843 24.9138 121.071 24.912Z" fill="#266B71"/>
<path d="M119.248 12.3984H115.219V16.4276H119.248V12.3984Z" fill="#266B71"/>
<path d="M125.031 12.3984H121.002V16.4276H125.031V12.3984Z" fill="#266B71"/>
<path d="M89.2254 30.357C87.2447 27.8358 84.9297 25.5962 82.3443 23.7001C80.2716 18.6786 77.0648 14.2049 72.9751 10.6291C68.8853 7.05338 64.0235 4.47264 58.7702 3.0889C53.5169 1.70517 48.0146 1.55598 42.694 2.65302C37.3734 3.75005 32.3789 6.06355 28.1014 9.41243L14.2832 20.2176C10.0156 23.5721 6.58145 27.8678 4.24887 32.7692C1.91629 37.6706 0.748485 43.0449 0.83668 48.4723C0.924875 53.8997 2.26668 59.2333 4.75729 64.0563C7.24789 68.8793 10.8198 73.0612 15.1941 76.2753C17.858 82.7155 22.3756 88.2188 28.1733 92.0865C33.971 95.9541 40.7873 98.0116 47.7567 97.9977C55.6136 98.003 63.2443 95.3673 69.423 90.514L83.2412 79.7789C90.5845 74.0222 95.3404 65.5843 96.4626 56.3213C97.5849 47.0582 94.9816 37.7287 89.2254 30.385V30.357ZM18.5786 25.7252L32.3968 14.8921C38.0035 10.5178 45.0542 8.41981 52.1403 9.01736C59.2264 9.6149 65.8262 12.8639 70.6212 18.1154C65.4947 16.7437 60.1241 16.5499 54.9121 17.5486C49.7 18.5474 44.7815 20.7127 40.5252 23.8823L39.8245 24.4219L35.5571 27.7713L28.69 33.1529C26.4319 34.9367 24.7518 37.3484 23.861 40.0848C22.9702 42.8211 22.9085 45.7597 23.6837 48.531C24.4589 51.3023 26.0364 53.7824 28.2176 55.6594C30.3989 57.5364 33.0866 58.7263 35.9425 59.0796C36.5327 59.1551 37.1272 59.1925 37.7223 59.1917C40.9767 59.1917 44.1362 58.0958 46.6916 56.0805L59.6549 45.92C60.4307 45.224 61.341 44.6945 62.3296 44.3645C63.3182 44.0344 64.364 43.9108 65.4024 44.0012C66.4407 44.0915 67.4494 44.3941 68.3661 44.89C69.2828 45.3859 70.0879 46.0647 70.7317 46.8844C71.3755 47.704 71.8442 48.6471 72.1089 49.6551C72.3736 50.6632 72.4285 51.7149 72.2704 52.7451C72.1122 53.7752 71.7443 54.762 71.1895 55.6443C70.6346 56.5266 69.9046 57.2856 69.0446 57.8743L55.0301 68.8827L53.4255 70.144C47.5352 74.765 40.0505 76.8568 32.6179 75.9592C25.1853 75.0617 18.4137 71.2483 13.7927 65.3581C9.17168 59.4678 7.07987 51.983 7.9774 44.5504C8.87494 37.1178 12.6883 30.3462 18.5786 25.7252ZM89.5477 55.4569C89.1125 59.1382 87.9513 62.6966 86.1315 65.9261C84.3117 69.1556 81.8693 71.9921 78.9458 74.2712L65.1275 85.1044C59.5282 89.4786 52.4857 91.5812 45.4047 90.9929C38.3238 90.4045 31.7248 87.1684 26.9242 81.9301C28.5117 82.355 30.1275 82.6664 31.7592 82.8621C33.1867 83.0355 34.6235 83.1221 36.0616 83.1214C43.9102 83.1269 51.5313 80.4853 57.6929 75.6236L61.9673 72.2742L73.34 63.354C76.3052 60.9433 78.2056 57.4648 78.6322 53.6672C79.0588 49.8696 77.9775 46.0562 75.621 43.0477C73.2645 40.0392 69.8212 38.076 66.0319 37.5805C62.2426 37.085 58.4103 38.0969 55.3595 40.3983L42.3961 50.5798C41.6116 51.2277 40.7052 51.7121 39.7306 52.0042C38.7559 52.2964 37.7326 52.3905 36.721 52.2809C35.7094 52.1714 34.73 51.8605 33.8404 51.3666C32.9508 50.8726 32.1692 50.2055 31.5414 49.4047C30.9137 48.6039 30.4526 47.6856 30.1854 46.7038C29.9181 45.722 29.8501 44.6967 29.9853 43.6882C30.1206 42.6797 30.4563 41.7085 30.9727 40.8318C31.4892 39.9551 32.1759 39.1906 32.9924 38.5835L44.1479 29.8455C48.5412 26.4066 53.8553 24.3472 59.4186 23.9275C64.9819 23.5078 70.5448 24.7467 75.4042 27.4877C80.2636 30.2286 84.2015 34.3485 86.7201 39.3268C89.2388 44.305 90.2252 49.9182 89.5547 55.4569H89.5477Z" fill="#FFCC00"/>
</svg>
