<?xml version="1.0" encoding="utf-8"?>
<!-- Generator: Adobe Illustrator 25.4.6, SVG Export Plug-In . SVG Version: 6.00 Build 0)  -->
<svg version="1.1" id="Layer_1" xmlns="http://www.w3.org/2000/svg" xmlns:xlink="http://www.w3.org/1999/xlink" x="0px" y="0px"
	 width="300px" height="107.2px" viewBox="0 0 300 107.2" style="enable-background:new 0 0 300 107.2;" xml:space="preserve">
<style type="text/css">
	.st0{fill:#393B3C;}
	.st1{fill:#05A04B;}
</style>
<g>
	<path class="st0" d="M120.2,19.5c-2.7-3.4-6.9-5.5-12.4-5.5c-10.1,0-18.5,8.8-18.5,20.1s8.4,20.1,18.5,20.1c5.5,0,9.7-2.1,12.4-5.5
		v4.5h9.8V15h-9.8V19.5z M109.6,44.7c-6,0-10.5-4.3-10.5-10.7s4.5-10.7,10.5-10.7s10.6,4.3,10.6,10.7S115.7,44.7,109.6,44.7z
		 M79.5,7.2c-2.1-2.3-4.6-4.1-7.6-5.3C68.9,0.6,65.6,0,61.8,0C58,0,54.6,0.6,51.6,1.8c-1.8,0.7-3.4,1.7-4.9,2.8l4.8,9.6
		c1.1-1.3,4-4,10.4-4c4.6,0,8.4,1.6,10.2,4c2.4,3.1,3.6,6.7,3.6,12.3c0,5.8-1.3,16.7-13.9,16.9C49.3,43.5,48.2,31.5,48,26.5
		C47.7,14.8,44,9.4,42,7.1c-2.1-2.3-4.6-4.1-7.6-5.3c-2.5-1-5.2-1.6-8.2-1.8l0,10.3c3.3,0.3,6.8,1.6,8.7,4.4c1.6,2.4,3,5.9,3,11.7
		l0,0c0,0,0,7.3,1.5,11.3c1.2,3.2,2.6,6.1,4.7,8.4s4.6,4.1,7.6,5.3c3,1.2,6.4,1.8,10.1,1.8c3.8,0,7.1-0.6,10.1-1.8
		c3-1.2,5.5-3,7.6-5.3c2.1-2.3,3.7-5.1,4.8-8.4c1.1-3.3,1.7-7,1.7-11.1s-0.5-7.8-1.7-11.1C83.2,12.3,81.6,9.5,79.5,7.2L79.5,7.2z
		 M24.2,43c-4.6,0-8.4-1.6-10.2-4c-2.4-3.1-3.6-6.6-3.6-12.1l0,0V0H0.1c0,0,0,26.3,0,26.5c0,4.1,0.5,7.8,1.7,11.1
		c1.1,3.3,2.7,6.1,4.8,8.4c2.1,2.3,4.6,4.1,7.6,5.3c3,1.2,6.4,1.8,10.1,1.8s7.2-0.6,10.2-1.8c1.9-0.8,3.6-1.8,5.1-3
		c0,0-3.9-5.9-4.5-10.1C34.9,38.5,32.4,43,24.2,43L24.2,43z M149.9,4.3h-9.8V15h-6.6v9.4h6.6v15.8c0,10.3,4.6,14.3,18.4,12.8v-8.9
		c-5.6,0.3-8.6,0.2-8.6-3.9V24.4h8.6V15h-8.6V4.3L149.9,4.3z M290.2,15v4.5c-2.7-3.4-6.9-5.5-12.4-5.5c-10.1,0-18.5,8.8-18.5,20.1
		s8.4,20.1,18.5,20.1c5.5,0,9.7-2.1,12.4-5.5V53h9.8V15C300,15,290.2,15,290.2,15z M279.6,44.7c-6,0-10.5-4.3-10.5-10.7
		s4.5-10.7,10.5-10.7c6,0,10.6,4.3,10.6,10.7S285.7,44.7,279.6,44.7z M250.7,0.1c-3,0-5.5,2.6-5.5,5.5s2.5,5.5,5.5,5.5
		s5.5-2.5,5.5-5.5S253.8,0.1,250.7,0.1z M226.7,13.9c-5.1,0-9.1,1.9-11.3,5.3V15h-9.8v38h9.8V32.5c0-6.6,3.6-9.4,8.4-9.4
		c4.4,0,7.5,2.7,7.5,7.8V53h9.8V29.7C241.1,19.6,234.7,13.9,226.7,13.9L226.7,13.9z M245.8,53h9.8V15h-9.8V53z M191.1,19.5
		c-2.7-3.4-6.9-5.5-12.4-5.5c-10.1,0-18.5,8.8-18.5,20.1s8.4,20.1,18.5,20.1c5.5,0,9.7-2.1,12.4-5.5v4.5h9.8V15h-9.8V19.5
		L191.1,19.5z M180.6,44.7c-6,0-10.5-4.3-10.5-10.7s4.5-10.7,10.5-10.7s10.6,4.3,10.6,10.7S186.7,44.7,180.6,44.7z"/>
	<g>
		<path class="st1" d="M30.7,72.5H19.5v33.9h-8.3V72.5H0v-7.9h30.7V72.5z"/>
		<path class="st1" d="M57,76.5v29.8h-7.7v-3.5c-2.1,2.7-5.4,4.3-9.7,4.3c-7.9,0-14.5-6.9-14.5-15.7s6.6-15.7,14.5-15.7
			c4.3,0,7.6,1.7,9.7,4.3v-3.5L57,76.5L57,76.5z M49.3,91.4c0-5-3.5-8.4-8.3-8.4s-8.2,3.4-8.2,8.4s3.5,8.4,8.2,8.4
			S49.3,96.5,49.3,91.4z"/>
		<path class="st1" d="M81.3,106.4L70.4,92.8v13.5h-7.7V62.8h7.7v26.9l10.3-13.1h9.2l-12,14.7l12.3,15.1H81.3L81.3,106.4z"/>
		<path class="st1" d="M121.7,76.5v29.8H114v-3.5c-2.1,2.7-5.4,4.3-9.7,4.3c-7.9,0-14.5-6.9-14.5-15.7s6.6-15.7,14.5-15.7
			c4.3,0,7.6,1.7,9.7,4.3v-3.5L121.7,76.5L121.7,76.5z M114,91.4c0-5-3.5-8.4-8.3-8.4s-8.2,3.4-8.2,8.4s3.5,8.4,8.2,8.4
			C110.5,99.9,114,96.5,114,91.4z"/>
		<path class="st1" d="M138.4,76.2v0.3h6.3v7.4h-6.3v22.4h-7.7V83.9h-4.3v-7.4h4.3v-0.3c0-8.2,4.5-14,14-13.4v7.4
			C140.8,69.9,138.4,72.2,138.4,76.2z"/>
		<path class="st1" d="M176.9,76.5v29.8h-7.7V103c-1.8,2.7-4.9,4.2-8.9,4.2c-6.3,0-11.3-4.4-11.3-12.3V76.5h7.7v17.4
			c0,4,2.4,6.2,5.9,6.2c3.7,0,6.6-2.2,6.6-7.4V76.5H176.9L176.9,76.5z"/>
		<path class="st1" d="M181.5,62.8h7.7v43.5h-7.7V62.8z"/>
	</g>
</g>
</svg>
